<svg version="1.2" xmlns="http://www.w3.org/2000/svg" viewBox="0 0 16 16" width="16" height="16">
	<title>arrow-square-down-svg</title>
	<style>
		.s0 { fill: #4a00e0 } 
	</style>
	<path id="Layer" fill-rule="evenodd" class="s0" d="m6 0.8h4c3.6 0 5.2 1.6 5.2 5.2v4c0 3.6-1.6 5.2-5.2 5.2h-4c-3.6 0-5.2-1.6-5.2-5.2v-4c0-3.6 1.6-5.2 5.2-5.2zm4 13.4c3.1 0 4.2-1.1 4.2-4.2v-4c0-3.1-1.1-4.2-4.2-4.2h-4c-3.1 0-4.2 1.1-4.2 4.2v4c0 3.1 1.1 4.2 4.2 4.2z"/>
	<path id="Layer" class="s0" d="m8 6.1q0.2 0 0.4 0.1l2.3 2.4c0.2 0.2 0.2 0.5 0 0.7-0.2 0.2-0.5 0.2-0.7 0l-2-2-2 2c-0.2 0.2-0.5 0.2-0.7 0-0.2-0.2-0.2-0.5 0-0.7l2.3-2.4q0.2-0.1 0.4-0.1z"/>
</svg>