<svg width="19" height="19" viewBox="0 0 19 19" fill="none" xmlns="http://www.w3.org/2000/svg">
<path d="M4.33805 11.7446C3.5967 11.7446 3.22602 11.7446 2.93362 11.6235C2.54376 11.462 2.23402 11.1523 2.07253 10.7624C1.95142 10.47 1.95142 10.0993 1.95142 9.35798V3.94827C1.95142 3.05718 1.95142 2.61163 2.12483 2.27128C2.27738 1.97189 2.52078 1.72849 2.82017 1.57595C3.16052 1.40253 3.60607 1.40253 4.49716 1.40253H9.90687C10.6482 1.40253 11.0189 1.40253 11.3113 1.52364C11.7012 1.68513 12.0109 1.99487 12.1724 2.38473C12.2935 2.67713 12.2935 3.04781 12.2935 3.78916M10.066 17.3134H15.3166C16.2077 17.3134 16.6532 17.3134 16.9936 17.14C17.2929 16.9875 17.5364 16.7441 17.6889 16.4447C17.8623 16.1043 17.8623 15.6588 17.8623 14.7677V9.51709C17.8623 8.62599 17.8623 8.18044 17.6889 7.84009C17.5364 7.54071 17.2929 7.2973 16.9936 7.14476C16.6532 6.97134 16.2077 6.97134 15.3166 6.97134H10.066C9.17488 6.97134 8.72933 6.97134 8.38898 7.14476C8.0896 7.2973 7.84619 7.54071 7.69365 7.84009C7.52023 8.18044 7.52023 8.62599 7.52023 9.51709V14.7677C7.52023 15.6588 7.52023 16.1043 7.69365 16.4447C7.84619 16.7441 8.0896 16.9875 8.38898 17.14C8.72933 17.3134 9.17488 17.3134 10.066 17.3134Z" stroke="#545455" stroke-width="1.90931" stroke-linecap="round" stroke-linejoin="round"/>
</svg>
