<svg width="80" height="82" viewBox="0 0 80 82" fill="none" xmlns="http://www.w3.org/2000/svg">
<path d="M14.4812 82C12.1503 82 9.95896 81.4847 8.0061 80.4363C3.93389 78.2495 1.59853 74.0265 1.90901 69.4121C2.59521 59.2316 12.0873 52.4708 12.49 52.1874C13.1447 51.7284 14.0469 51.8881 14.5059 52.5428C14.9648 53.1975 14.8051 54.0974 14.1526 54.5564C14.0649 54.6171 5.38954 60.8245 4.79783 69.6056C4.56384 73.0704 6.31869 76.2426 9.37622 77.885C14.0379 80.3891 20.594 79.0009 26.9093 74.175C27.5437 73.6891 27.1815 74.706 27.6674 75.3404C28.1534 75.9749 29.3008 75.9884 28.6664 76.4721C23.9057 80.1124 18.9403 81.9977 14.4812 82Z" fill="#7F56D9"/>
<path d="M77.0357 25.6122C76.921 25.2995 76.795 24.989 76.669 24.6808C70.7722 10.2188 56.5599 0 40.0034 0C18.1777 0 0.419678 17.7558 0.419678 39.577C0.419678 44.9204 1.46582 50.104 3.53117 54.9839C3.8439 55.7218 4.69438 56.0638 5.42557 55.7556C6.16352 55.4428 6.50548 54.5924 6.19725 53.8612C5.5313 52.2931 4.98232 50.6889 4.5481 49.0578L7.99713 46.2793C10.4045 44.3512 11.9231 41.4759 12.1638 38.4048L12.2268 37.5611C12.3146 36.4317 12.9513 35.4103 13.9187 34.8275C16.9763 32.9939 18.7064 29.6439 18.4431 26.0892L18.3846 25.3377C18.1394 22.0642 16.7985 18.9145 14.6094 16.4644L13.0525 14.7185C14.8321 12.7904 16.8188 11.049 18.9741 9.53936L26.4391 11.9939L31.0693 13.2966C31.7532 13.4901 32.4484 13.5801 33.1278 13.5801C35.9739 13.5801 38.6535 11.9782 39.9561 9.32113L40.1834 8.86891L44.746 3.19707C54.0671 4.40748 62.3038 9.12761 68.0769 15.9851L62.8302 20.5478C60.9291 22.2014 59.604 24.3726 58.9965 26.8227C58.1146 30.3999 59.2372 34.1909 61.9326 36.7084C63.2532 37.9436 64.9361 38.5691 66.6302 38.5691C67.9621 38.5691 69.3008 38.1843 70.4774 37.3924L72.6958 35.903L76.3653 34.7173C76.5767 36.3079 76.6893 37.9301 76.6893 39.5792C76.6893 58.9369 61.6243 74.841 42.5997 76.1774L42.9327 72.3774C43.2071 69.2141 42.5659 66.0599 41.0765 63.2543L37.1168 55.7983C36.6241 54.8669 35.7039 54.2504 34.6622 54.1402C33.6161 54.0345 32.5879 54.4529 31.9174 55.2584L30.9433 56.426C29.4336 58.2394 27.5055 59.7198 25.3681 60.7187C22.8596 61.8864 20.72 63.7133 19.1721 66.0036L17.4644 68.5302C15.4351 66.953 13.5542 65.1442 11.8646 63.1283C11.3539 62.5163 10.4427 62.4331 9.82847 62.9506C9.21652 63.4613 9.13326 64.3725 9.64622 64.9867C17.1944 73.9995 28.2614 79.1652 40.0034 79.1652C61.8246 79.1652 79.5803 61.4094 79.5803 39.5815C79.5825 34.6633 78.6803 29.9566 77.0357 25.6122ZM15.9796 25.52L16.0381 26.2714C16.236 28.9082 14.9536 31.3966 12.6813 32.7577C11.0412 33.7409 9.97021 35.4688 9.82622 37.3766L9.75871 38.2158C9.56973 40.6321 8.37961 42.8842 6.48974 44.4029L3.95867 46.439C3.52895 44.1914 3.31745 41.9011 3.31745 39.577C3.31745 30.8679 6.37047 22.8539 11.4619 16.5543L12.8118 18.0685C14.6476 20.1226 15.7726 22.7707 15.9796 25.52ZM38.1337 7.56624L37.7918 8.26146C36.6871 10.5136 34.1358 11.6519 31.7194 10.977L27.168 9.69458L22.6773 8.21867L25.7393 6.77655C30.1288 4.70219 34.8152 3.62226 39.6659 3.56377L41.3735 3.5435L38.1337 7.56624ZM71.6293 33.7071L69.132 35.39C67.3952 36.5577 65.1093 36.3732 63.5817 34.9468C61.5231 33.0232 60.6591 30.1299 61.3386 27.3986C61.82 25.43 62.8865 23.6954 64.4096 22.3635L69.5123 17.9268L72.671 22.8899V22.8944C73.886 25.268 74.8511 27.7833 75.5306 30.4179L75.5396 30.4471L75.9108 32.3235L71.6293 33.7071ZM40.5298 72.1681L40.1721 76.2673H40.0034C32.5676 76.2673 25.4199 74.0288 19.4106 69.9498L21.1655 67.3513C22.4681 65.4231 24.2702 63.8842 26.3828 62.9011C28.8419 61.7581 31.0557 60.0505 32.7926 57.9672L33.7668 56.7995C33.994 56.525 34.2865 56.525 34.408 56.5385C34.5227 56.5475 34.8175 56.6105 34.9862 56.9232L38.9459 64.3837C40.2171 66.7753 40.766 69.4661 40.5298 72.1681Z" fill="black"/>
<path d="M54.8568 25.5245L46.8271 31.9478L48.5528 42.0901C48.6585 42.6975 48.4943 43.3207 48.1095 43.8022L44.4581 48.3356C43.3061 49.7733 41 49.1883 40.6625 47.3817L38.9549 38.2428L27.753 47.2039L28.8576 48.5831C29.4786 49.3593 29.6383 50.4055 29.2828 51.3324L28.8014 52.5811C28.0252 54.5924 25.3636 55.0019 24.0137 53.319L21.9551 50.7429L17.1607 51.4089C16.2675 51.5349 15.5701 50.6575 15.8873 49.8183L17.5904 45.2848L15.5318 42.7088C14.1819 41.0259 15.1696 38.5173 17.3024 38.2001L18.6231 38.0066C19.6063 37.8626 20.5962 38.2474 21.2127 39.0235L22.3173 40.4027L33.5441 31.4281L25.0756 27.9363C23.3725 27.2321 23.2758 24.8585 24.9159 24.0261L30.0996 21.378C30.6485 21.099 31.2897 21.0698 31.8634 21.297L41.4748 25.0768L49.4167 18.7254C51.0185 17.443 53.3517 17.704 54.6296 19.3037L55.4395 20.3116C56.7197 21.9067 56.4587 24.2421 54.8568 25.5245Z" fill="#7F56D9"/>
<path d="M52.5777 68.0465C51.7948 68.0465 51.0096 67.907 50.2559 67.6235C48.4155 66.9328 46.9869 65.4749 46.3367 63.6211L47.4751 63.2228L46.3367 63.6211C45.0003 59.8076 46.4627 55.6521 49.8914 53.5148L51.2796 52.6508C54.8816 50.4077 57.8401 47.2422 59.8402 43.4985L60.0045 43.1925C60.7851 41.7301 62.3421 40.9787 63.9709 41.2734C65.5998 41.5682 66.7945 42.8213 67.0105 44.4637L67.348 47.0128C67.6517 49.3054 67.3795 51.6609 66.5605 53.8252L64.5559 59.1259C63.5907 61.6772 61.7526 63.8258 59.3812 65.1712L55.8355 67.1848C54.8321 67.7563 53.7071 68.0465 52.5777 68.0465ZM63.2892 43.6222C62.9608 43.6222 62.4523 43.7302 62.1328 44.3264L61.9686 44.6324C59.7705 48.7496 56.515 52.2301 52.5553 54.696L51.1671 55.5599C48.7035 57.0943 47.6506 60.082 48.6113 62.8223C49.023 64.0013 49.9319 64.9282 51.0996 65.3647C52.2672 65.8034 53.5609 65.6999 54.6453 65.0835L58.1911 63.0699C60.0742 62.0012 61.5343 60.2935 62.3015 58.2687L64.3062 52.9681C64.9834 51.175 65.2083 49.2243 64.9564 47.3255L64.6189 44.7764C64.4996 43.8854 63.7617 43.683 63.5389 43.6425C63.4872 43.6357 63.3972 43.6222 63.2892 43.6222Z" fill="black"/>
<path d="M76.93 25.0902L76.669 24.6808C76.795 24.989 76.9187 25.2972 77.0357 25.6122L76.93 25.0902Z" fill="black"/>
</svg>
