<svg width="48" height="48" viewBox="0 0 48 48" fill="none" xmlns="http://www.w3.org/2000/svg">
<rect width="48" height="48" rx="24" fill="#F4EBFF"/>
<path d="M27 14.4578C26.053 14.1604 25.0452 14 24 14C18.4772 14 14 18.4772 14 24C14 29.5228 18.4772 34 24 34C29.5228 34 34 29.5228 34 24C34 22.2847 33.5681 20.6702 32.8071 19.2594M29 17.75H29.005M22.5001 33.8883L22.5002 31.6849C22.5002 31.5656 22.5429 31.4502 22.6205 31.3596L25.1063 28.4594C25.3106 28.2211 25.2473 27.8556 24.9748 27.6999L22.1185 26.0677C22.0409 26.0234 21.9766 25.9591 21.9323 25.8814L20.0705 22.6186C19.9736 22.4488 19.7866 22.3511 19.5918 22.3684L14.0642 22.8607M33 18C33 20.2091 31 22 29 24C27 22 25 20.2091 25 18C25 15.7909 26.7909 14 29 14C31.2091 14 33 15.7909 33 18ZM29.25 17.75C29.25 17.8881 29.1381 18 29 18C28.8619 18 28.75 17.8881 28.75 17.75C28.75 17.6119 28.8619 17.5 29 17.5C29.1381 17.5 29.25 17.6119 29.25 17.75Z" stroke="#7F56D9" stroke-width="2" stroke-linecap="round" stroke-linejoin="round"/>
</svg>
