<svg width="24" height="24" viewBox="0 0 24 24" fill="none" xmlns="http://www.w3.org/2000/svg">
<path d="M2.17188 9.29123C2.17188 6.88528 2.17188 5.6823 2.6401 4.76335C3.05197 3.95502 3.70917 3.29782 4.5175 2.88595C5.43645 2.41772 6.63943 2.41772 9.04538 2.41772H15.3461C17.7521 2.41772 18.955 2.41772 19.874 2.88595C20.6823 3.29782 21.3395 3.95502 21.7514 4.76335C22.2196 5.6823 22.2196 6.88528 22.2196 9.29123V15.5919C22.2196 17.9979 22.2196 19.2009 21.7514 20.1198C21.3395 20.9282 20.6823 21.5854 19.874 21.9972C18.955 22.4655 17.7521 22.4655 15.3461 22.4655H9.04538C6.63943 22.4655 5.43645 22.4655 4.5175 21.9972C3.70917 21.5854 3.05197 20.9282 2.6401 20.1198C2.17188 19.2009 2.17188 17.9979 2.17188 15.5919V9.29123Z" fill="#545455"/>
<path d="M18.1207 8.1647C17.0369 7.24823 15.7363 6.79 14.3634 6.71362L14.1466 6.94274C15.375 7.24823 16.4588 7.85921 17.4704 8.6993C16.2421 8.01195 14.8692 7.55372 13.4241 7.40097C12.9905 7.3246 12.6293 7.3246 12.1957 7.3246C11.7622 7.3246 11.4009 7.3246 10.9674 7.40097C9.52225 7.55372 8.14939 8.01195 6.92104 8.6993C7.93262 7.85921 9.01646 7.24823 10.2448 6.94274L10.028 6.71362C8.65518 6.79 7.35457 7.24823 6.27073 8.1647C5.04238 10.6086 4.39208 13.358 4.31982 16.1838C5.40366 17.4057 6.92104 18.1695 8.51067 18.1695C8.51067 18.1695 9.01646 17.5585 9.37774 17.0239C8.43841 16.7948 7.57134 16.2602 6.99329 15.4201C7.49908 15.7256 8.00488 16.031 8.51067 16.2602C9.16097 16.5657 9.81127 16.7184 10.4616 16.8711C11.0396 16.9475 11.6177 17.0239 12.1957 17.0239C12.7738 17.0239 13.3518 16.9475 13.9299 16.8711C14.5802 16.7184 15.2305 16.5657 15.8808 16.2602C16.3866 16.031 16.8924 15.7256 17.3981 15.4201C16.8201 16.2602 15.953 16.7948 15.0137 17.0239C15.375 17.5585 15.8808 18.1695 15.8808 18.1695C17.4704 18.1695 18.9878 17.4057 20.0716 16.1838C19.9994 13.358 19.3491 10.6086 18.1207 8.1647ZM9.81127 14.8091C9.08871 14.8091 8.43841 14.1217 8.43841 13.2816C8.43841 12.4415 9.08871 11.7542 9.81127 11.7542C10.5338 11.7542 11.1841 12.4415 11.1841 13.2816C11.1841 14.1217 10.5338 14.8091 9.81127 14.8091ZM14.5802 14.8091C13.8576 14.8091 13.2073 14.1217 13.2073 13.2816C13.2073 12.4415 13.8576 11.7542 14.5802 11.7542C15.3027 11.7542 15.953 12.4415 15.953 13.2816C15.953 14.1217 15.3027 14.8091 14.5802 14.8091Z" fill="white"/>
</svg>
