<svg version="1.2" xmlns="http://www.w3.org/2000/svg" viewBox="0 0 780 499" width="780" height="499">
	<title>discover-svg</title>
	<style>
		.s0 { fill: #4d4d4d } 
		.s1 { fill: #ffffff } 
		.s2 { fill: #f47216 } 
	</style>
	<g id="Layer">
		<path id="Layer" fill-rule="evenodd" class="s0" d="m725-1c30.4 0 55 24.6 55 55v391c0 30.4-24.6 55-55 55h-670c-30.4 0-55-24.6-55-55v-391c0-30.4 24.6-55 55-55z"/>
		<path id="Layer" fill-rule="evenodd" class="s1" d="m327.2 160.9c8.8 0 16.2 1.8 25.2 6.1v22.7c-8.5-7.8-15.9-11.1-25.7-11.1-19.3 0-34.4 15-34.4 34 0 20.1 14.6 34.2 35.3 34.2 9.3 0 16.6-3.1 24.8-10.8v22.7c-9.3 4.2-16.9 5.8-25.7 5.8-31.3 0-55.6-22.6-55.6-51.7 0-28.9 24.9-51.9 56.1-51.9zm-97.2 0.6c11.6 0 22.1 3.7 31 11l-10.8 13.3c-5.3-5.7-10.4-8.1-16.5-8.1-8.9 0-15.3 4.8-15.3 11 0 5.4 3.6 8.2 15.9 12.5 23.4 8 30.3 15.2 30.3 30.9 0 19.2-15 32.6-36.3 32.6-15.6 0-27-5.8-36.5-18.9l13.3-12c4.7 8.6 12.6 13.2 22.4 13.2 9.2 0 16-5.9 16-14 0-4.1-2.1-7.7-6.2-10.2-2.1-1.2-6.2-3-14.2-5.7-19.3-6.5-25.9-13.5-25.9-27.2 0-16.2 14.2-28.4 32.8-28.4zm234.8 1.7h22.4l28.1 66.6 28.4-66.6h22.3l-45.5 101.7h-11.1zm-397.3 0.2h30.2c33.3 0 56.5 20.4 56.5 49.6 0 14.6-7.1 28.7-19.1 38.1-10.1 7.9-21.7 11.4-37.6 11.4h-30zm96.1 0h20.6v99.2h-20.6zm411.8 0h58.2v16.8h-37.7v22h36.3v16.8h-36.3v26.7h37.7v16.8h-58.2c0 0 0-99.1 0-99.1zm71.8 0h30.5c23.7 0 37.2 10.7 37.2 29.2 0 15.2-8.5 25.2-23.9 28.1l33.1 41.8h-25.2l-28.5-39.8h-2.7v39.8h-20.5zm20.5 15.6v30.1h6c13.2 0 20.1-5.4 20.1-15.4 0-9.6-6.9-14.7-19.7-14.7zm-579.7 1.2v65.6h5.5c13.2 0 21.6-2.4 28.1-7.9 7.1-6 11.4-15.5 11.4-25 0-9.5-4.3-18.7-11.4-24.7-6.8-5.7-14.9-8-28.1-8z"/>
		<path id="Layer" fill-rule="evenodd" class="s2" d="m415.1 160.2c31 0 56.1 23.6 56.1 52.7v0.1c0 29.1-25.1 52.7-56.1 52.7-30.9 0-56-23.6-56-52.7v-0.1c0-29.1 25.1-52.7 56-52.7zm364.9 127.2c-26.1 18.3-221.1 149.3-558.8 212.6h503.8c30.4 0 55-24.6 55-55 0 0 0-157.6 0-157.6z"/>
	</g>
</svg>