<svg width="20" height="20" viewBox="0 0 20 20" fill="none" xmlns="http://www.w3.org/2000/svg">
<path d="M19.5466 14.4416C19.5466 17.9165 17.475 19.9881 14 19.9881H12.864C12.3389 19.9881 11.9093 19.5585 11.9093 19.0334V13.5251C11.9093 13.2673 12.1194 13.0478 12.3771 13.0478L14.0573 13.0191C14.191 13.0096 14.3055 12.9141 14.3342 12.7805L14.6683 10.9571C14.6969 10.7852 14.5633 10.6229 14.3819 10.6229L12.3485 10.6516C12.0812 10.6516 11.8712 10.4416 11.8616 10.1838L11.8234 7.8449C11.8234 7.69215 11.9475 7.55851 12.1098 7.55851L14.401 7.52032C14.5633 7.52032 14.6874 7.39623 14.6874 7.23394L14.6492 4.94274C14.6492 4.78045 14.5251 4.65636 14.3628 4.65636L11.7852 4.69455C10.2005 4.72319 8.94038 6.02151 8.96902 7.60624L9.01674 10.2315C9.02628 10.4988 8.81627 10.7089 8.54897 10.7184L7.40337 10.7375C7.24108 10.7375 7.11699 10.8616 7.11699 11.0239L7.14562 12.8377C7.14562 13 7.26972 13.1241 7.43201 13.1241L8.57761 13.1051C8.84491 13.1051 9.05491 13.3151 9.06446 13.5728L9.15037 19.0144C9.15992 19.549 8.73033 19.9881 8.19572 19.9881H6.00003C2.52509 19.9881 0.453491 17.9165 0.453491 14.432V6.44156C0.453491 2.96662 2.52509 0.89502 6.00003 0.89502H14C17.475 0.89502 19.5466 2.96662 19.5466 6.44156V14.4416V14.4416Z" fill="#545455"/>
</svg>
