<svg width="1440" height="520" viewBox="0 0 1440 520" fill="none" xmlns="http://www.w3.org/2000/svg">
<rect width="1440" height="520" fill="#140330"/>
<mask id="mask0_2422_59226" style="mask-type:alpha" maskUnits="userSpaceOnUse" x="0" y="35" width="1440" height="485">
<rect y="35" width="1440" height="485" fill="#2D0087"/>
</mask>
<g mask="url(#mask0_2422_59226)">
<path d="M1169.62 543.643L1186.43 526.993C1186.43 526.993 1204.33 535.844 1303.22 660.886L1352.8 732.909C1360.55 744.16 1356.18 760.127 1343.94 765.227C1343.84 765.269 1343.74 765.305 1343.65 765.348C1343.65 765.348 1347.39 771.605 1356.63 775.837C1359.37 777.1 1362.29 777.937 1365.24 778.413C1379.35 780.66 1395.48 774.776 1404.25 762.635C1412.56 751.162 1410.52 737.402 1405.38 725.123C1394.29 698.832 1377.08 675.999 1360.41 653.462C1296.66 567.349 1240.05 511.909 1219.43 494.339L1235.24 478.673L1137 446.153L1169.62 543.643Z" fill="#2D1363"/>
<path d="M1337.62 553.158L1354.43 536.508C1354.43 536.508 1372.33 545.359 1471.22 670.402L1520.8 742.424C1528.55 753.675 1524.18 769.642 1511.94 774.742C1511.84 774.784 1511.74 774.82 1511.65 774.863C1511.65 774.863 1515.39 781.12 1524.63 785.352C1527.37 786.615 1530.29 787.452 1533.24 787.928C1547.35 790.175 1563.48 784.292 1572.25 772.15C1580.56 760.677 1578.52 746.918 1573.38 734.639C1562.29 708.348 1545.08 685.514 1528.41 662.977C1464.66 576.864 1408.05 521.424 1387.43 503.854L1403.24 488.188L1305 455.668L1337.62 553.158Z" fill="#2D1363"/>
<path d="M1355.62 392.458L1372.43 375.808C1372.43 375.808 1390.33 384.659 1489.22 509.701L1538.8 581.724C1546.55 592.975 1542.18 608.942 1529.94 614.042C1529.84 614.084 1529.74 614.119 1529.65 614.163C1529.65 614.163 1533.39 620.419 1542.63 624.652C1545.37 625.915 1548.29 626.752 1551.24 627.228C1565.35 629.475 1581.48 623.591 1590.25 611.45C1598.56 599.977 1596.52 586.217 1591.38 573.938C1580.29 547.647 1563.08 524.814 1546.41 502.277C1482.66 416.163 1426.05 360.724 1405.43 343.154L1421.24 327.488L1323 294.968L1355.62 392.458Z" fill="#2D1363"/>
</g>
</svg>
