<svg width="56" height="56" viewBox="0 0 56 56" fill="none" xmlns="http://www.w3.org/2000/svg">
<rect width="56" height="56" rx="28" fill="#F4EBFF"/>
<path d="M21.5833 29.1667L22.4985 30.9971C22.8083 31.6166 22.9631 31.9263 23.17 32.1947C23.3536 32.4329 23.5671 32.6464 23.8053 32.83C24.0737 33.0369 24.3834 33.1918 25.0029 33.5015L26.8333 34.4167L25.0029 35.3319C24.3834 35.6416 24.0737 35.7965 23.8053 36.0034C23.5671 36.187 23.3536 36.4005 23.17 36.6387C22.9631 36.9071 22.8083 37.2168 22.4985 37.8363L21.5833 39.6667L20.6681 37.8363C20.3584 37.2168 20.2035 36.9071 19.9966 36.6387C19.813 36.4005 19.5995 36.187 19.3613 36.0034C19.0929 35.7965 18.7832 35.6416 18.1637 35.3319L16.3333 34.4167L18.1637 33.5015C18.7832 33.1918 19.0929 33.0369 19.3613 32.83C19.5995 32.6464 19.813 32.4329 19.9966 32.1947C20.2035 31.9263 20.3584 31.6166 20.6681 30.9971L21.5833 29.1667Z" stroke="#7F56D9" stroke-width="2" stroke-linecap="round" stroke-linejoin="round"/>
<path d="M31.5 16.3334L32.875 19.9085C33.2041 20.764 33.3686 21.1917 33.6244 21.5515C33.8511 21.8703 34.1297 22.1489 34.4486 22.3756C34.8083 22.6315 35.2361 22.796 36.0915 23.125L39.6666 24.5L36.0915 25.8751C35.2361 26.2041 34.8083 26.3686 34.4486 26.6244C34.1297 26.8512 33.8511 27.1298 33.6244 27.4486C33.3686 27.8084 33.2041 28.2361 32.875 29.0916L31.5 32.6667L30.1249 29.0916C29.7959 28.2361 29.6314 27.8084 29.3756 27.4486C29.1488 27.1298 28.8703 26.8512 28.5514 26.6244C28.1916 26.3686 27.7639 26.2041 26.9085 25.8751L23.3333 24.5L26.9085 23.125C27.7639 22.796 28.1916 22.6315 28.5514 22.3756C28.8703 22.1489 29.1488 21.8703 29.3756 21.5515C29.6314 21.1917 29.7959 20.764 30.1249 19.9085L31.5 16.3334Z" stroke="#7F56D9" stroke-width="2" stroke-linecap="round" stroke-linejoin="round"/>
</svg>
