<svg width="14" height="12" viewBox="0 0 14 12" fill="none" xmlns="http://www.w3.org/2000/svg">
<path d="M7.2518 11.4001L7.25179 11.4001L7.24693 11.4018C7.20375 11.4171 7.11426 11.4333 7 11.4333C6.88575 11.4333 6.79626 11.4171 6.75308 11.4018L6.75309 11.4018L6.74821 11.4001C5.8533 11.0946 4.35789 10.2828 3.09282 8.9866C1.83379 7.6966 0.833336 5.96034 0.833336 3.79333C0.833336 2.00714 2.27181 0.566666 4.04 0.566666C5.08765 0.566666 6.01504 1.07233 6.59859 1.85811C6.69292 1.98512 6.84179 2.06 7 2.06C7.15821 2.06 7.30709 1.98512 7.40142 1.85811C7.98466 1.07274 8.91853 0.566666 9.96 0.566666C11.7282 0.566666 13.1667 2.00714 13.1667 3.79333C13.1667 5.96034 12.1662 7.6966 10.9072 8.9866C9.64212 10.2828 8.14671 11.0946 7.2518 11.4001Z" fill="#1C1C1C" stroke="#F8F5FF" stroke-linecap="round" stroke-linejoin="round"/>
</svg>
