<svg width="64" height="64" viewBox="0 0 64 64" fill="none" xmlns="http://www.w3.org/2000/svg">
<path d="M58.6124 29.4625C58.0624 30.1375 57.5124 30.825 56.9374 31.4875C56.7624 31.6875 56.6999 31.875 56.7249 32.1375C56.7874 32.8375 56.8374 33.55 56.8874 34.2625C56.9499 35.2625 56.3499 35.725 55.4124 35.375C54.7999 35.15 54.1874 34.9 53.5999 34.625C53.2874 34.4875 53.0374 34.475 52.7249 34.6125C52.1124 34.8875 51.4874 35.15 50.8624 35.375C49.9624 35.7 49.3374 35.225 49.3999 34.275C49.4499 33.5875 49.5124 32.9 49.5874 32.2125C49.6249 31.9125 49.5499 31.6875 49.3499 31.4625C48.8999 30.9625 48.4749 30.4375 48.0499 29.9125C47.4124 29.125 47.6624 28.375 48.6499 28.125C49.2499 27.975 49.8499 27.8125 50.4624 27.6875C50.8374 27.6125 51.0624 27.4375 51.2499 27.1C51.5499 26.5375 51.8874 25.9875 52.2249 25.45C52.7624 24.625 53.5624 24.625 54.0874 25.45C54.4749 26.05 54.8249 26.65 55.1874 27.2625C55.2999 27.45 55.4374 27.5625 55.6499 27.6125C56.2874 27.75 56.9124 27.9375 57.5624 28.0875C58.0249 28.1875 58.3874 28.4125 58.6249 28.825C58.6124 29.0375 58.6124 29.25 58.6124 29.4625ZM55.2999 33.6375C54.7874 31.925 55.2999 30.6 56.6624 29.4875C56.0374 29.325 55.5499 29.1875 55.0624 29.0875C54.5499 28.9875 54.1999 28.7125 53.9499 28.25C53.7124 27.8125 53.4374 27.3875 53.0874 26.8C52.5749 28.5625 51.4124 29.3375 49.7124 29.375C50.1499 30.125 50.8499 30.5625 51.0874 31.3125C51.3124 32.05 51.0124 32.8125 51.0749 33.675C52.4499 32.7375 53.8374 32.7 55.2999 33.6375Z" fill="#9747FF"/>
<path d="M58.6126 14C58.3876 14.3 58.1001 14.45 57.7376 14.55C53.8251 15.65 51.4751 18.3375 50.2126 22.075C49.9501 22.8375 49.6376 23.125 49.1376 22.9625C48.6251 22.8 48.4626 22.375 48.7126 21.625C50.1251 17.425 52.7751 14.4375 57.1001 13.0875C57.6751 12.9125 58.1876 12.8375 58.6251 13.3625C58.6126 13.5875 58.6126 13.7875 58.6126 14Z" fill="#050505"/>
<path d="M29.5126 26.3125C30.8376 25.575 32.1626 24.8375 33.5001 24.1C34.8751 23.35 36.1626 23.7125 36.9251 25.075C37.4001 25.9125 37.8751 26.7625 38.3376 27.6125C39.0501 28.9125 38.6876 30.2 37.3876 30.925C33.9751 32.8375 30.5501 34.7375 27.1001 36.6625C27.2876 36.8 27.4751 36.75 27.6376 36.75C33.6501 36.75 39.6751 36.75 45.6876 36.75C47.2751 36.75 47.9751 37.4375 47.9751 39.0125C47.9751 44.35 47.9751 49.7 47.9751 55.0375C47.9751 56.5125 47.2751 57.5375 46.0001 57.925C45.6251 58.0375 45.2501 58.05 44.8751 58.05C36.4376 58.05 28.0001 58.05 19.5626 58.05C17.5376 58.05 16.4251 56.9375 16.4251 54.9125C16.4251 51.025 16.4251 47.1375 16.4251 43.2375C16.4251 43.05 16.4251 42.875 16.4251 42.6125C14.7501 43.55 13.1376 44.4375 11.5376 45.3375C11.0251 45.625 10.5001 45.8 9.9001 45.7C9.1376 45.575 8.5626 45.175 8.1876 44.4875C7.6751 43.5625 7.1501 42.6625 6.6501 41.725C6.0126 40.525 6.3751 39.2375 7.5501 38.5625C8.8376 37.825 10.1376 37.1125 11.4376 36.3875C11.5876 36.3 11.7251 36.2125 11.9501 36.075C11.2376 35.9375 10.6126 35.8625 10.0126 35.675C7.9501 35.0375 6.3501 33.875 5.7126 31.725C4.8251 28.7125 6.8626 25.5875 9.9751 25.0875C12.1501 24.7375 14.1001 25.3875 15.9876 26.3875C16.6001 26.7125 17.1876 27.075 17.7376 27.4875C17.9751 27.675 18.1751 27.725 18.4251 27.525C18.6751 27.325 19.0501 27.3125 19.0001 26.8125C18.8376 25.1625 18.9376 23.5375 19.4126 21.9375C19.5876 21.3625 19.8001 20.8 20.1001 20.275C20.3876 19.7625 20.7751 19.6 21.2001 19.8C21.6376 20.0125 21.7626 20.475 21.4876 21C20.6501 22.6 20.4751 24.3125 20.5251 26.075C20.5251 26.1375 20.5501 26.2 20.5751 26.3125C21.2001 25.9875 21.8376 25.775 22.5251 25.85C22.7626 25.875 22.7376 25.675 22.7751 25.5375C23.0251 24.6 23.3626 23.7 23.8376 22.85C24.1501 22.3 24.5876 22.125 25.0126 22.3625C25.4251 22.6 25.5001 23.05 25.2126 23.5875C24.7751 24.375 24.4751 25.225 24.2501 26.0875C24.1751 26.375 24.2001 26.6 24.4376 26.825C24.8626 27.2375 25.0751 27.8 25.3626 28.3125C25.4626 28.4875 25.5251 28.575 25.7501 28.45C26.1626 28.225 26.5376 27.9875 26.8126 27.575C27.7501 26.225 28.5001 24.8125 28.7376 23.1625C29.1001 20.6625 27.3126 18.575 24.8876 18.6625C24.4501 18.675 24.0376 18.8 23.6376 18.95C23.1126 19.15 22.7001 18.9875 22.5251 18.5375C22.3501 18.0875 22.5501 17.725 23.1001 17.5C26.1876 16.1875 29.7251 18.1875 30.2376 21.5125C30.5001 23.175 30.0876 24.7 29.4626 26.2C29.4126 26.25 29.3751 26.3 29.4376 26.35C29.4126 26.3625 29.4751 26.325 29.5126 26.3125ZM35.1376 47.4C35.1376 44.525 35.1251 41.6625 35.1501 38.7875C35.1501 38.4 35.0626 38.2875 34.6626 38.3C33.0376 38.325 31.4126 38.325 29.7876 38.3C29.3626 38.2875 29.2376 38.3875 29.2376 38.825C29.2626 40.9 29.2501 42.975 29.2501 45.05C29.2501 45.6625 28.9126 46.0125 28.4001 45.9625C27.9501 45.925 27.7001 45.6 27.7001 45.0375C27.7001 42.925 27.6876 40.825 27.7001 38.7125C27.7001 38.4125 27.6501 38.2875 27.3126 38.3C26.3501 38.325 25.3751 38.3125 24.4126 38.3C24.2001 38.3 24.0126 38.3625 23.8251 38.4625C21.9876 39.4875 20.1501 40.5125 18.3126 41.525C18.0626 41.6625 17.9626 41.825 17.9626 42.125C17.9751 46.4125 17.9626 50.7 17.9751 54.9875C17.9751 56.025 18.4126 56.475 19.4626 56.475C22.0751 56.4875 24.6876 56.475 27.2876 56.4875C27.6251 56.4875 27.7126 56.4125 27.7126 56.0625C27.7001 53.9 27.7001 51.7375 27.7001 49.575C27.7001 49.3125 27.6751 49.05 27.7126 48.8C27.7751 48.375 28.0376 48.1125 28.4751 48.1125C28.9251 48.1125 29.1751 48.375 29.2376 48.8C29.2626 48.9375 29.2501 49.075 29.2501 49.2125C29.2501 51.475 29.2626 53.7375 29.2376 56C29.2376 56.4 29.3501 56.475 29.7251 56.475C31.3626 56.45 33.0126 56.45 34.6501 56.475C35.0376 56.475 35.1501 56.375 35.1376 55.9875C35.1251 53.1375 35.1376 50.275 35.1376 47.4ZM36.6876 47.375C36.6876 50.2625 36.6876 53.15 36.6751 56.025C36.6751 56.375 36.7501 56.5 37.1251 56.4875C39.7126 56.475 42.3126 56.4875 44.9001 56.475C45.9626 56.475 46.3876 56.05 46.3876 55.0125C46.3876 49.6625 46.3876 44.3 46.4001 38.95C46.4001 38.4375 46.2126 38.3 45.7251 38.3C42.8751 38.3125 40.0251 38.3125 37.1751 38.3C36.7501 38.3 36.6751 38.425 36.6751 38.825C36.7001 41.675 36.6876 44.525 36.6876 47.375ZM16.5376 28.575C16.3126 28.425 16.1251 28.3 15.9376 28.1875C14.3876 27.2375 12.7626 26.5125 10.8876 26.575C8.6251 26.6375 6.9251 28.375 7.0626 30.5125C7.1751 32.1875 8.1751 33.25 9.6501 33.9C11.1251 34.5625 12.6876 34.6 14.2751 34.5375C14.7001 34.525 15.0751 34.3875 15.4376 34.175C15.6876 34.0375 15.6876 33.925 15.5626 33.7C15.2626 33.175 14.9001 32.675 14.7751 32.075C14.7126 31.7875 14.5876 31.6875 14.3251 31.6125C13.4251 31.35 12.5126 31.2 11.5876 31.0875C11.0376 31.025 10.7376 30.65 10.8001 30.1875C10.8626 29.75 11.2126 29.5 11.7501 29.55C12.7001 29.6375 13.6251 29.8 14.5501 30.0625C14.6876 30.1 14.8751 30.2625 15.0001 30.025C15.3126 29.3625 15.8501 28.9125 16.5376 28.575ZM10.2376 44.175C10.3251 44.15 10.4751 44.125 10.5876 44.0625C13.2376 42.5875 15.8876 41.1125 18.5376 39.6375C18.6876 39.55 18.7876 39.5 18.6626 39.3C17.9626 38.075 17.2751 36.8375 16.5876 35.6C16.4876 35.425 16.4126 35.4 16.2376 35.5C13.5751 36.9875 10.9001 38.475 8.2501 39.9625C7.8501 40.1875 7.7626 40.575 7.9876 40.9875C8.4876 41.9125 9.0126 42.825 9.5251 43.75C9.6751 44.0125 9.9001 44.1375 10.2376 44.175ZM37.1251 28.8C37.1001 28.7125 37.0751 28.6 37.0251 28.4875C36.5126 27.55 36.0001 26.6125 35.4626 25.6875C35.2001 25.225 34.8126 25.15 34.3001 25.4375C31.7001 26.8875 29.0876 28.3375 26.4876 29.7875C26.2751 29.9 26.2251 29.9875 26.3501 30.2125C27.0376 31.4125 27.7126 32.6125 28.3626 33.825C28.5001 34.0625 28.6001 34.0375 28.8001 33.925C31.4001 32.475 34.0001 31.025 36.6126 29.575C36.9126 29.4 37.1001 29.175 37.1251 28.8ZM27.1251 34.775C27.1001 34.725 27.0876 34.7 27.0751 34.6625C26.3751 33.4 25.6626 32.1375 24.9626 30.8625C24.8626 30.675 24.7626 30.7375 24.6376 30.8125C22.4501 32.025 20.2751 33.25 18.0876 34.4625C17.9376 34.55 17.8376 34.6125 17.9501 34.8125C18.6501 36.0375 19.3376 37.275 20.0126 38.5125C20.1126 38.6875 20.2001 38.7 20.3751 38.6C22.5501 37.375 24.7376 36.1625 26.9251 34.95C27.0126 34.9125 27.1126 34.8875 27.1251 34.775ZM16.2376 31.25C16.2376 31.9125 16.6126 32.3125 16.8251 32.7875C16.9876 33.1625 17.1376 33.2375 17.5376 33.0125C19.3251 31.975 21.1501 30.9875 22.9501 29.975C24.1876 29.2875 24.1876 29.2875 23.4126 28.0875C22.9876 27.425 22.2501 27.1875 21.5626 27.5625C20.0126 28.4 18.4876 29.2625 16.9501 30.125C16.4751 30.4 16.2376 30.825 16.2376 31.25Z" fill="#050505"/>
<path d="M37.9249 6.9625C38.3499 7 38.6499 7.2125 38.8499 7.5625C39.2124 8.1625 39.5874 8.775 39.9374 9.3875C40.0624 9.5875 40.1999 9.7125 40.4499 9.7625C41.1374 9.9125 41.8249 10.0875 42.5124 10.275C43.4124 10.525 43.6499 11.2375 43.0749 11.975C42.6374 12.5375 42.1874 13.075 41.7124 13.6125C41.5249 13.825 41.4624 14.0375 41.4874 14.3125C41.5624 14.9875 41.6124 15.65 41.6624 16.325C41.7499 17.3625 41.1124 17.85 40.1374 17.475C39.5124 17.2375 38.8874 16.975 38.2749 16.7C38.0124 16.5875 37.7874 16.5875 37.5374 16.7C36.9249 16.975 36.3124 17.2375 35.6749 17.475C34.7124 17.8375 34.0999 17.375 34.1749 16.35C34.2124 15.7625 34.2374 15.175 34.3124 14.6C34.3874 14.075 34.2249 13.675 33.8749 13.3C33.4749 12.875 33.1124 12.4125 32.7499 11.95C32.1999 11.2375 32.4249 10.525 33.2874 10.275C33.9499 10.0875 34.6124 9.9125 35.2874 9.775C35.6124 9.7125 35.7999 9.5375 35.9499 9.275C36.2749 8.7 36.6124 8.15 36.9624 7.5875C37.1999 7.225 37.4999 6.9875 37.9249 6.9625ZM34.4624 11.5C34.9499 12.2625 35.6499 12.7125 35.8499 13.4625C36.0499 14.1875 35.8124 14.95 35.8249 15.825C37.2499 14.825 38.6249 14.85 40.0624 15.825C40.0249 15.3375 39.9999 15.0125 39.9624 14.6875C39.8374 13.8625 39.9749 13.125 40.6124 12.5C40.8749 12.25 41.3374 11.9125 41.2374 11.625C41.1374 11.35 40.5749 11.3625 40.2124 11.3C39.4374 11.175 38.8874 10.8 38.5499 10.0625C38.3874 9.7125 38.1499 9.4125 37.8624 8.9375C37.3374 10.675 36.2249 11.475 34.4624 11.5Z" fill="#9747FF"/>
<path d="M50.3875 13.625C48.2625 13.6875 46.4875 11.975 46.425 9.8125C46.3625 7.6875 48.0875 5.9125 50.2375 5.85C52.375 5.8 54.1375 7.4875 54.2 9.6625C54.2625 11.7875 52.55 13.575 50.3875 13.625ZM50.3125 12.075C51.6125 12.075 52.65 11.025 52.65 9.7375C52.6375 8.4625 51.625 7.4375 50.35 7.425C49.05 7.4125 48 8.4375 47.9875 9.7375C47.975 11.025 49.0125 12.075 50.3125 12.075Z" fill="#9747FF"/>
<path d="M44.9124 23.1C44.8499 25.8375 44.6124 28.55 43.5624 31.1125C43.1999 32.0125 42.7124 32.85 42.0499 33.575C41.7499 33.9 41.2874 33.9375 40.9749 33.6875C40.6249 33.4125 40.5499 32.9625 40.8624 32.5875C42.2249 30.975 42.7249 29.0375 43.0374 27.025C43.4249 24.5375 43.4124 22.0375 43.2374 19.525C43.2249 19.3 43.1874 19.075 43.3124 18.8625C43.4874 18.575 43.7499 18.4125 44.0874 18.4625C44.4749 18.525 44.7124 18.775 44.7499 19.15C44.8124 19.825 44.8624 20.4875 44.8874 21.1625C44.9249 21.825 44.9124 22.4625 44.9124 23.1Z" fill="#050505"/>
<path d="M55.2999 33.6375C53.8374 32.7 52.45 32.725 51.0625 33.6875C51 32.825 51.3125 32.0625 51.075 31.325C50.85 30.5875 50.15 30.15 49.7 29.3875C51.4125 29.35 52.5625 28.575 53.075 26.8125C53.425 27.4 53.7 27.825 53.9375 28.2625C54.1875 28.7125 54.5499 28.9875 55.0499 29.1C55.5374 29.2 56.0125 29.3375 56.65 29.5C55.3125 30.6 54.7874 31.9375 55.2999 33.6375Z" fill="#9747FF"/>
<path d="M35.1376 47.4C35.1376 50.275 35.1251 53.1375 35.1501 56.0125C35.1501 56.4 35.0501 56.5125 34.6626 56.5C33.0251 56.475 31.3751 56.475 29.7376 56.5C29.3626 56.5 29.2501 56.425 29.2501 56.025C29.2751 53.7625 29.2626 51.5 29.2626 49.2375C29.2626 49.1 29.2751 48.9625 29.2501 48.825C29.1751 48.4 28.9251 48.1375 28.4876 48.1375C28.0376 48.1375 27.7876 48.4 27.7251 48.825C27.6876 49.075 27.7126 49.3375 27.7126 49.6C27.7126 51.7625 27.7001 53.925 27.7251 56.0875C27.7251 56.425 27.6251 56.5125 27.3001 56.5125C24.6876 56.5 22.0751 56.5125 19.4751 56.5C18.4376 56.5 18.0001 56.05 17.9876 55.0125C17.9876 50.725 17.9876 46.4375 17.9751 42.15C17.9751 41.85 18.0751 41.6875 18.3251 41.55C20.1626 40.5375 22.0001 39.5125 23.8376 38.4875C24.0251 38.3875 24.2001 38.325 24.4251 38.325C25.3876 38.3375 26.3626 38.35 27.3251 38.325C27.6626 38.3125 27.7126 38.45 27.7126 38.7375C27.7001 40.85 27.7001 42.95 27.7126 45.0625C27.7126 45.625 27.9626 45.95 28.4126 45.9875C28.9376 46.0375 29.2626 45.6875 29.2626 45.075C29.2626 43 29.2751 40.925 29.2501 38.85C29.2501 38.4 29.3751 38.3125 29.8001 38.325C31.4251 38.35 33.0501 38.35 34.6751 38.325C35.0751 38.325 35.1626 38.4375 35.1626 38.8125C35.1251 41.6625 35.1376 44.5375 35.1376 47.4Z" fill="#FCFCFC"/>
<path d="M36.6875 47.375C36.6875 44.525 36.7 41.675 36.675 38.825C36.675 38.4375 36.75 38.3 37.175 38.3C40.025 38.325 42.875 38.3125 45.725 38.3C46.2125 38.3 46.4001 38.4375 46.4001 38.95C46.3876 44.3 46.3876 49.6625 46.3876 55.0125C46.3876 56.05 45.9626 56.475 44.9001 56.475C42.3126 56.475 39.7125 56.4625 37.125 56.4875C36.75 56.4875 36.675 56.375 36.675 56.025C36.7 53.15 36.6875 50.2625 36.6875 47.375Z" fill="#FDFDFD"/>
<path d="M16.5374 28.575C15.8499 28.925 15.3124 29.3625 14.9874 30.025C14.8624 30.275 14.6749 30.1125 14.5374 30.0625C13.6249 29.8 12.6874 29.6375 11.7374 29.55C11.1999 29.5 10.8499 29.75 10.7874 30.1875C10.7249 30.65 11.0249 31.0125 11.5749 31.0875C12.4999 31.2 13.4124 31.35 14.3124 31.6125C14.5749 31.6875 14.6999 31.8 14.7624 32.075C14.8874 32.675 15.2499 33.175 15.5499 33.7C15.6749 33.925 15.6749 34.0375 15.4249 34.175C15.0624 34.3875 14.6874 34.525 14.2624 34.5375C12.6874 34.6 11.1124 34.5625 9.63743 33.9C8.16243 33.25 7.16243 32.1875 7.04993 30.5125C6.92493 28.375 8.62493 26.6375 10.8874 26.5625C12.7624 26.5 14.3874 27.2375 15.9374 28.175C16.1249 28.3 16.3124 28.425 16.5374 28.575Z" fill="#FCFCFC"/>
<path d="M10.2375 44.175C9.89997 44.1375 9.67497 44 9.52497 43.7375C9.01247 42.8125 8.48747 41.9 7.98747 40.975C7.76247 40.5625 7.84997 40.175 8.24997 39.95C10.9125 38.45 13.575 36.975 16.2375 35.4875C16.4125 35.3875 16.5 35.4125 16.5875 35.5875C17.275 36.825 17.9625 38.0625 18.6625 39.2875C18.775 39.4875 18.6875 39.55 18.5375 39.625C15.8875 41.1 13.2375 42.575 10.5875 44.05C10.475 44.125 10.325 44.15 10.2375 44.175Z" fill="#FCFCFC"/>
<path d="M37.125 28.8C37.1 29.1875 36.9125 29.4 36.625 29.5625C34.025 31.0125 31.4125 32.4625 28.8125 33.9125C28.6125 34.025 28.5 34.05 28.375 33.8125C27.7125 32.6 27.0375 31.4 26.3625 30.2C26.2375 29.975 26.2875 29.8875 26.5 29.775C29.1125 28.3375 31.7125 26.875 34.3125 25.425C34.8125 25.15 35.2 25.225 35.475 25.675C36.0125 26.6 36.525 27.5375 37.0375 28.475C37.075 28.5875 37.1 28.7125 37.125 28.8Z" fill="#FCFCFC"/>
<path d="M27.1251 34.775C27.1251 34.8875 27.0126 34.9125 26.9251 34.9625C24.7376 36.175 22.5501 37.3875 20.3751 38.6125C20.2001 38.7125 20.1126 38.7 20.0126 38.525C19.3251 37.2875 18.6376 36.05 17.9501 34.825C17.8376 34.625 17.9376 34.55 18.0876 34.475C20.2751 33.2625 22.4626 32.0375 24.6376 30.825C24.7626 30.75 24.8626 30.6875 24.9626 30.875C25.6626 32.15 26.3751 33.4125 27.0751 34.675C27.0876 34.7 27.1001 34.725 27.1251 34.775Z" fill="#FCFCFC"/>
<path d="M16.2376 31.25C16.2501 30.825 16.4751 30.3875 16.9501 30.125C18.4876 29.2625 20.0126 28.4 21.5626 27.5625C22.2501 27.1875 22.9751 27.425 23.4126 28.0875C24.1876 29.2875 24.1876 29.2875 22.9501 29.975C21.1376 30.975 19.3251 31.975 17.5376 33.0125C17.1376 33.2375 16.9876 33.1625 16.8251 32.7875C16.6126 32.3125 16.2251 31.925 16.2376 31.25Z" fill="#FCFCFC"/>
<path d="M29.5124 26.3125C29.4749 26.325 29.4124 26.3625 29.3999 26.35C29.3374 26.3 29.3749 26.25 29.4249 26.2C29.4499 26.2375 29.4749 26.275 29.5124 26.3125Z" fill="#FDFDFD"/>
<path d="M34.4624 11.5C36.2124 11.475 37.3374 10.675 37.8499 8.95C38.1374 9.425 38.3874 9.725 38.5374 10.075C38.8749 10.8 39.4124 11.1875 40.1999 11.3125C40.5624 11.375 41.1249 11.3625 41.2249 11.6375C41.3249 11.925 40.8624 12.25 40.5999 12.5125C39.9624 13.1375 39.8374 13.875 39.9499 14.7C39.9999 15.025 40.0124 15.35 40.0499 15.8375C38.6124 14.8625 37.2374 14.8375 35.8124 15.8375C35.7999 14.9625 36.0499 14.2 35.8374 13.475C35.6499 12.7125 34.9499 12.275 34.4624 11.5Z" fill="#9747FF"/>
</svg>
