<svg width="76" height="82" viewBox="0 0 76 82" fill="none" xmlns="http://www.w3.org/2000/svg">
<path d="M57.5877 29.3978L56.0451 29.8549L55.6528 31.3975C55.3995 32.405 54.1463 32.7574 53.4035 32.026L52.9427 31.5766C52.5998 31.2376 52.4646 30.7481 52.5789 30.2834L52.7865 29.455L46.1893 27.7847L47.2311 32.1117C47.4196 32.8831 46.5169 33.5858 45.7494 33.2621L43.325 32.2546C43.0678 32.1441 42.8793 31.9365 42.8145 31.6794L41.2548 25.6707C41.19 25.4174 41.2471 25.1527 41.39 24.9356C41.4147 24.9642 41.4433 24.9927 41.4719 25.0175L41.5119 25.0537C41.5119 25.046 41.5119 25.0327 41.5157 25.0251L41.5976 24.7033C41.5157 24.768 41.4471 24.8499 41.39 24.9356C41.0357 24.5395 41.0224 23.9471 41.3786 23.572L45.8941 18.7707C46.0903 18.5631 46.3683 18.4527 46.6578 18.4679L49.406 18.6184C50.2706 18.6679 50.7372 19.7039 50.1697 20.3286L47.1168 23.6843L53.8283 25.3831L54.0358 24.5585C54.1539 24.0938 54.5101 23.7262 54.971 23.5948L55.588 23.4158C56.5879 23.1301 57.523 24.0329 57.2697 25.0404L56.8774 26.5868L58.0162 27.7219C58.5495 28.2627 58.3172 29.1807 57.5877 29.3978Z" fill="#7F56D9"/>
<path d="M41.5976 24.7032L41.5157 25.0251C41.5119 25.0327 41.5119 25.046 41.5119 25.0536L41.4719 25.0175C41.4434 24.9927 41.4148 24.9642 41.39 24.9356C41.4452 24.8499 41.5157 24.768 41.5976 24.7032Z" fill="#7F56D9"/>
<path d="M41.5976 24.7032L41.5157 25.0251C41.5119 25.0327 41.5119 25.046 41.5119 25.0536L41.4719 25.0175C41.4434 24.9927 41.4148 24.9642 41.39 24.9356C41.4452 24.8499 41.5157 24.768 41.5976 24.7032Z" fill="#7F56D9"/>
<path d="M46.7359 41.1371C46.6445 41.1371 46.5531 41.1276 46.4598 41.1048L43.3002 40.3753C42.6413 40.223 42.2299 39.5659 42.3822 38.907C42.5346 38.248 43.1917 37.8386 43.8506 37.989L47.0102 38.7184C47.6691 38.8708 48.0805 39.5278 47.9281 40.1868C47.7986 40.7524 47.294 41.1371 46.7359 41.1371Z" fill="black"/>
<path d="M53.5769 42.8054C53.4855 42.8054 53.3941 42.7959 53.3007 42.7731L50.1412 42.0436C49.4822 41.8913 49.0708 41.2342 49.2232 40.5753C49.3756 39.9163 50.0345 39.505 50.6916 39.6574L53.8511 40.3867C54.5101 40.5391 54.9215 41.1961 54.7691 41.8551C54.6377 42.4226 54.133 42.8054 53.5769 42.8054Z" fill="black"/>
<path d="M60.1074 44.3367C60.016 44.3367 59.9245 44.3272 59.8312 44.3043L56.6717 43.5749C56.0127 43.4225 55.6013 42.7655 55.7537 42.1065C55.9061 41.4476 56.565 41.0362 57.2221 41.1885L60.3816 41.918C61.0406 42.0703 61.4519 42.7274 61.2996 43.3863C61.1682 43.9539 60.6654 44.3367 60.1074 44.3367Z" fill="black"/>
<path d="M56.9478 49.6312C56.8564 49.6312 56.765 49.6217 56.6717 49.6007L43.3021 46.5249C42.6432 46.3726 42.2318 45.7155 42.3841 45.0566C42.5365 44.3976 43.1936 43.9881 43.8525 44.1386L57.2221 47.2144C57.881 47.3668 58.2924 48.0238 58.14 48.6828C58.0086 49.2484 57.5058 49.6312 56.9478 49.6312Z" fill="black"/>
<path d="M55.9556 54.3696C55.8585 54.3696 55.7595 54.3582 55.6604 54.3334L42.367 51.052C41.71 50.8901 41.31 50.2254 41.4719 49.5702C41.6338 48.9132 42.2985 48.5133 42.9536 48.6751L56.247 51.9566C56.9041 52.1185 57.304 52.7831 57.1421 53.4383C57.005 53.9963 56.506 54.3696 55.9556 54.3696Z" fill="black"/>
<path d="M45.8218 56.7331C45.7304 56.7331 45.639 56.7236 45.5456 56.7007L42.3861 55.9713C41.7271 55.8189 41.3158 55.1619 41.4681 54.5029C41.6205 53.844 42.2775 53.4345 42.9365 53.585L46.096 54.3144C46.755 54.4667 47.1664 55.1238 47.014 55.7827C46.8826 56.3503 46.3798 56.7331 45.8218 56.7331Z" fill="black"/>
<path d="M75.6786 58.9118C75.6786 59.586 75.132 60.1364 74.454 60.1364H72.6257V61.9609C72.6257 62.6389 72.0791 63.1855 71.4011 63.1855C70.7269 63.1855 70.1765 62.6389 70.1765 61.9609V60.1364H68.352C67.674 60.1364 67.1274 59.586 67.1274 58.9118C67.1274 58.2338 67.674 57.6872 68.352 57.6872H70.1765V55.8589C70.1765 55.1809 70.7269 54.6343 71.4011 54.6343C72.0791 54.6343 72.6257 55.1809 72.6257 55.8589V57.6872H74.454C75.132 57.6872 75.6786 58.2338 75.6786 58.9118Z" fill="#EBEBEB"/>
<path d="M60.7168 7.14949C58.7457 7.14949 57.1421 5.5459 57.1421 3.57474C57.1421 1.60359 58.7457 0 60.7168 0C62.688 0 64.2916 1.60359 64.2916 3.57474C64.2916 5.5459 62.688 7.14949 60.7168 7.14949ZM60.7168 2.45111C60.096 2.45111 59.5913 2.95578 59.5913 3.57665C59.5913 4.19752 60.096 4.70224 60.7168 4.70224C61.3377 4.70224 61.8424 4.19752 61.8424 3.57665C61.8424 2.95578 61.3358 2.45111 60.7168 2.45111Z" fill="#7F56D9"/>
<path d="M38.0457 18.3537H5.66547C2.71731 18.3537 0.321442 20.7495 0.321442 23.6977V76.6522C0.321442 79.6004 2.71731 82 5.66547 82H38.0457C40.9882 82 43.3897 79.6004 43.3897 76.6522V23.6977C43.3897 20.7514 40.9882 18.3537 38.0457 18.3537ZM40.9405 76.6522C40.9405 78.252 39.6417 79.5509 38.0457 79.5509H5.66547C4.0695 79.5509 2.77062 78.252 2.77062 76.6522V23.6977C2.77062 22.1017 4.0695 20.8029 5.66547 20.8029H38.0457C39.6417 20.8029 40.9405 22.1017 40.9405 23.6977V76.6522Z" fill="black"/>
<path d="M53.8492 76.1513C53.4836 76.1513 53.1141 76.1132 52.7484 76.037L43.1574 74.1839C42.4927 74.0563 42.0585 73.4126 42.188 72.7498C42.3156 72.0852 42.9593 71.6491 43.6221 71.7805L53.2322 73.6374C54.0073 73.7973 54.7805 73.6526 55.4261 73.2279C56.0737 72.8032 56.5155 72.1538 56.6736 71.3958L67.4721 19.5516C67.6302 18.7955 67.4835 18.0204 67.0588 17.3748C66.6341 16.7272 65.9847 16.2854 65.2267 16.1273L33.5282 9.52438C32.7702 9.3663 31.9989 9.51298 31.3514 9.93768C30.7039 10.3624 30.262 11.0118 30.104 11.7698L28.4052 19.9248C28.268 20.5876 27.6205 21.0123 26.9558 20.8733C26.2931 20.7362 25.8684 20.0867 26.0074 19.4239L27.7062 11.2689C27.9976 9.87102 28.8146 8.67119 30.0087 7.88844C31.2028 7.10569 32.6293 6.83526 34.0272 7.12664L65.7257 13.7295C67.1236 14.0209 68.3234 14.838 69.1061 16.0321C69.8889 17.2262 70.1593 18.6526 69.8679 20.0505L59.0694 71.8947C58.778 73.2926 57.961 74.4925 56.7669 75.2752C55.8851 75.8523 54.8776 76.1513 53.8492 76.1513Z" fill="black"/>
<path d="M22.0917 27.4172C15.4127 27.4172 9.78298 32.0146 8.21177 38.2061L8.1832 38.3242C7.91466 39.4174 7.77182 40.5563 7.77182 41.7333C7.77182 49.6274 14.1976 56.0493 22.0917 56.0493C29.9859 56.0493 36.4078 49.6274 36.4078 41.7333C36.4078 33.8391 29.9878 27.4172 22.0917 27.4172ZM33.0978 37.3091L27.929 37.3167C27.5405 34.6466 26.8015 32.1898 25.7407 30.4415C29.0926 31.5232 31.7951 34.0639 33.0978 37.3091ZM21.9413 30.2415C23.1487 30.2415 24.7752 32.8945 25.4684 37.3206L18.4141 37.3281C19.1074 32.8945 20.7319 30.2415 21.9413 30.2415ZM18.1399 39.7831L25.7407 39.7659C25.7864 40.4401 25.8093 41.1448 25.8093 41.8761C25.8093 42.7864 25.7731 43.6568 25.7027 44.4814L18.1799 44.4986C18.1056 43.6701 18.0694 42.796 18.0694 41.878C18.0713 41.1505 18.0961 40.4515 18.1399 39.7831ZM18.4999 46.9458L25.3827 46.9287C24.6514 51.0558 23.1049 53.5088 21.9413 53.5088C20.7814 53.5107 19.235 51.0653 18.4999 46.9458ZM18.0637 30.5729C17.0429 32.3155 16.3287 34.7247 15.9497 37.3339L11.0723 37.3415C12.3198 34.201 14.8794 31.7232 18.0637 30.5729ZM10.221 41.7333C10.221 41.0724 10.2743 40.4268 10.3848 39.7945L15.6907 39.7831C15.645 40.482 15.6222 41.1829 15.6222 41.878C15.6222 42.7522 15.6583 43.634 15.7288 44.5024L10.5524 44.51C10.3353 43.6187 10.221 42.6893 10.221 41.7333ZM11.438 46.9592L16.0297 46.9516C16.3973 49.1798 17.0143 51.2329 17.8618 52.8174C15.0546 51.7471 12.7559 49.6369 11.438 46.9592ZM25.9464 52.9545C26.8358 51.3452 27.4777 49.2275 27.8567 46.9249L32.7626 46.9173C31.3914 49.734 28.9384 51.9261 25.9464 52.9545ZM33.3721 44.4681C33.3721 44.4681 33.3721 44.4681 33.3683 44.4681L28.1556 44.4757C28.2242 43.6149 28.2623 42.7407 28.2623 41.8761C28.2623 41.1733 28.2375 40.4687 28.1937 39.7659L33.7949 39.7545C33.9053 40.4001 33.9625 41.061 33.9625 41.7352C33.9625 42.6855 33.8482 43.613 33.6311 44.4986C33.5435 44.4757 33.4578 44.4681 33.3721 44.4681Z" fill="black"/>
<path d="M10.6419 64.7929C9.96774 64.7929 9.41923 64.2463 9.41733 63.5721C9.41733 63.5702 9.41733 63.5702 9.41733 63.5683C9.41733 62.8941 9.96392 62.3456 10.6381 62.3437L33.2883 62.2827C33.2902 62.2827 33.2902 62.2827 33.2921 62.2827C33.9663 62.2827 34.5148 62.8294 34.5167 63.5036C34.5167 63.5055 34.5167 63.5055 34.5167 63.5074C34.5167 64.1816 33.9701 64.73 33.2959 64.7319L10.6457 64.7929C10.6438 64.7929 10.6438 64.7929 10.6419 64.7929Z" fill="black"/>
<path d="M10.6419 69.1808C9.96774 69.1808 9.41923 68.6343 9.41733 67.9601C9.41733 67.9582 9.41733 67.9582 9.41733 67.9563C9.41733 67.2821 9.96392 66.7336 10.6381 66.7317L33.2883 66.6707C33.2902 66.6707 33.2902 66.6707 33.2921 66.6707C33.9663 66.6707 34.5148 67.2173 34.5167 67.8915C34.5167 67.8934 34.5167 67.8934 34.5167 67.8953C34.5167 68.5695 33.9701 69.118 33.2959 69.1199L10.6457 69.1808C10.6438 69.1808 10.6438 69.1808 10.6419 69.1808Z" fill="black"/>
<path d="M10.5905 73.5707C9.91822 73.5707 9.36971 73.026 9.36591 72.3538C9.36591 72.3518 9.36591 72.3499 9.36591 72.348C9.36591 71.6738 9.90869 71.1273 10.5829 71.1235L21.9089 71.0625C21.9108 71.0625 21.9127 71.0625 21.9165 71.0625C22.5888 71.0625 23.1373 71.6072 23.1411 72.2795C23.1411 72.2814 23.1411 72.2833 23.1411 72.2852C23.1411 72.9594 22.5984 73.506 21.9242 73.5098L10.5981 73.5707C10.5943 73.5707 10.5924 73.5707 10.5905 73.5707Z" fill="black"/>
</svg>
