<svg width="16" height="15" viewBox="0 0 16 15" fill="none" xmlns="http://www.w3.org/2000/svg">
<path d="M12.5957 9.05374L12.596 9.05348L14.4152 7.30022C14.9668 6.76974 15.2928 6.10616 15.0913 5.45597C14.8899 4.8061 14.246 4.44263 13.4914 4.31598L13.4914 4.31597L13.4887 4.31554L10.9903 3.91013L10.9903 3.9101L10.9847 3.90926C10.9151 3.89876 10.8024 3.85378 10.6824 3.76564C10.564 3.6786 10.4821 3.58153 10.4456 3.51138L9.51333 1.66566L9.51317 1.66535C9.17421 0.995432 8.64205 0.504089 7.9716 0.500145C7.30204 0.496206 6.76297 0.980154 6.41364 1.64415L6.41274 1.64588L5.36622 3.65406C5.32909 3.72531 5.24092 3.82452 5.10794 3.91132C4.97523 3.99795 4.84681 4.04024 4.76342 4.0465L2.74593 4.19734L2.74486 4.19742C1.90409 4.26209 1.13565 4.56697 0.898748 5.26097C0.661913 5.95479 1.08328 6.6658 1.70772 7.23053L1.70798 7.23076L3.36227 8.72481C3.36231 8.72485 3.36235 8.72489 3.36239 8.72492C3.42964 8.78582 3.50697 8.90409 3.55617 9.06009C3.60539 9.21618 3.60956 9.35639 3.58845 9.44503L3.58827 9.44579L3.07444 11.619L3.07443 11.619C2.88052 12.4394 2.93693 13.2649 3.52751 13.7008C4.1174 14.1362 4.92336 13.9485 5.65153 13.5235L5.65194 13.5233L7.40085 12.5003L7.40086 12.5003L7.40383 12.4986C7.4725 12.4577 7.59964 12.42 7.75903 12.4166C7.91769 12.4132 8.04946 12.4451 8.12368 12.4836C8.12384 12.4837 8.12399 12.4838 8.12414 12.4838L10.122 13.5299L10.1233 13.5306C10.7895 13.877 11.509 13.9677 12.0572 13.5828C12.6065 13.1972 12.7634 12.4896 12.6594 11.7453C12.6594 11.7452 12.6594 11.7451 12.6593 11.7449L12.3766 9.69067L12.3767 9.69066L12.3757 9.68433C12.3653 9.61487 12.3751 9.49286 12.4243 9.3514C12.4733 9.2104 12.5422 9.10519 12.5957 9.05374Z" fill="#F8F5FF" stroke="url(#paint0_linear_1655_39564)"/>
<defs>
<linearGradient id="paint0_linear_1655_39564" x1="1.3335" y1="7.0094" x2="14.6502" y2="7.0094" gradientUnits="userSpaceOnUse">
<stop stop-color="#8E2DE2"/>
<stop offset="1" stop-color="#4A00E0"/>
</linearGradient>
</defs>
</svg>
