<svg width="21" height="18" viewBox="0 0 21 18" fill="none" xmlns="http://www.w3.org/2000/svg">
<path d="M6.78899 17.0335C4.47276 17.0335 2.31365 16.3598 0.496338 15.1974C2.03929 15.2972 4.76226 15.0581 6.45594 13.4426C3.90809 13.3257 2.75906 11.3716 2.60918 10.5365C2.82567 10.62 3.85813 10.7202 4.44097 10.4864C1.51011 9.75155 1.06049 7.17951 1.1604 6.39453C1.70994 6.77867 2.64249 6.91228 3.00884 6.87888C0.277813 4.92479 1.26032 1.98531 1.74324 1.35065C3.70313 4.06591 6.6404 5.5909 10.2742 5.67573C10.2057 5.37524 10.1695 5.06239 10.1695 4.74107C10.1695 2.43506 12.0334 0.565674 14.3326 0.565674C15.534 0.565674 16.6164 1.076 17.3763 1.89229C18.1791 1.70417 19.3872 1.26381 19.9779 0.883004C19.6802 1.95191 18.7533 2.84359 18.1927 3.17408C18.1973 3.18532 18.1881 3.16279 18.1927 3.17408C18.6852 3.09959 20.0177 2.8435 20.5441 2.48636C20.2838 3.08686 19.3011 4.08529 18.4947 4.64426C18.6447 11.2612 13.5821 17.0335 6.78899 17.0335Z" fill="#545455"/>
</svg>
