<svg width="343" height="163" viewBox="0 0 343 163" fill="none" xmlns="http://www.w3.org/2000/svg">
<g clip-path="url(#clip0_1224_35511)">
<path d="M0 16C0 7.16344 7.16344 0 16 0H327C335.837 0 343 7.16344 343 16V163H0V16Z" fill="url(#paint0_linear_1224_35511)"/>
<path d="M209.811 118.599L215.794 112.674C215.794 112.674 222.163 115.823 257.353 160.32L274.997 185.95C277.754 189.953 276.2 195.635 271.844 197.45C271.808 197.465 271.774 197.478 271.742 197.493C271.742 197.493 273.073 199.719 276.36 201.226C277.336 201.675 278.372 201.973 279.424 202.142C284.446 202.942 290.184 200.848 293.304 196.528C296.262 192.445 295.536 187.549 293.708 183.179C289.76 173.823 283.638 165.698 277.706 157.678C255.018 127.034 234.874 107.306 227.535 101.054L233.163 95.4788L198.204 83.9065L209.811 118.599Z" fill="#6E1FF4"/>
<path d="M269.595 121.985L275.578 116.06C275.578 116.06 281.947 119.209 317.137 163.706L334.781 189.336C337.537 193.339 335.983 199.021 331.628 200.836C331.592 200.851 331.558 200.864 331.526 200.879C331.526 200.879 332.856 203.106 336.143 204.612C337.12 205.061 338.156 205.359 339.208 205.528C344.23 206.328 349.967 204.234 353.088 199.914C356.045 195.831 355.319 190.935 353.491 186.565C349.543 177.209 343.421 169.084 337.489 161.064C314.802 130.421 294.658 110.692 287.319 104.44L292.947 98.865L257.987 87.2928L269.595 121.985Z" fill="#6E1FF4"/>
<path d="M276 64.7988L281.983 58.8738C281.983 58.8738 288.352 62.0234 323.542 106.52L341.186 132.15C343.942 136.153 342.389 141.835 338.033 143.65C337.997 143.665 337.963 143.678 337.931 143.693C337.931 143.693 339.261 145.92 342.549 147.426C343.525 147.875 344.561 148.173 345.613 148.342C350.635 149.142 356.373 147.048 359.493 142.728C362.451 138.645 361.724 133.749 359.896 129.379C355.948 120.023 349.826 111.898 343.895 103.878C321.207 73.2345 301.063 53.5062 293.724 47.2539L299.352 41.679L264.392 30.1067L276 64.7988Z" fill="#6E1FF4"/>
</g>
<defs>
<linearGradient id="paint0_linear_1224_35511" x1="-5.05944e-06" y1="78.6897" x2="343" y2="78.6896" gradientUnits="userSpaceOnUse">
<stop stop-color="#8E2DE2"/>
<stop offset="1" stop-color="#4A00E0"/>
</linearGradient>
<clipPath id="clip0_1224_35511">
<rect width="343" height="163" fill="white"/>
</clipPath>
</defs>
</svg>
