<svg width="25" height="25" viewBox="0 0 25 25" fill="none" xmlns="http://www.w3.org/2000/svg">
<g clip-path="url(#clip0_2473_60134)">
<rect width="24.125" height="24.125" rx="12.0625" fill="#E1E9EB"/>
<circle cx="12.0625" cy="12.0625" r="12.0625" fill="url(#paint0_linear_2473_60134)"/>
<g clip-path="url(#clip1_2473_60134)">
<path d="M19.8591 18.6459C18.8496 17.521 17.6246 16.6233 16.2611 16.0093C14.8976 15.3953 13.551 18.4709 12.0625 18.4709C10.574 18.4709 8.97607 15.3953 7.6126 16.0093C6.24913 16.6233 5.02406 17.521 4.01455 18.6459C3.85869 18.8232 3.77151 19.0531 3.76953 19.2921V23.1689C3.77283 23.4237 3.87358 23.6669 4.04995 23.8459C4.22633 24.0248 4.46414 24.1252 4.71191 24.1252H19.1618C19.4117 24.1252 19.6514 24.023 19.8281 23.8413C20.0049 23.6595 20.1042 23.413 20.1042 23.156V19.2792C20.0992 19.0447 20.0122 18.8199 19.8591 18.6459Z" fill="url(#paint1_linear_2473_60134)"/>
<path d="M11.9368 14.0729C14.3657 14.0729 16.3346 12.104 16.3346 9.67513C16.3346 7.2463 14.3657 5.27734 11.9368 5.27734C9.50802 5.27734 7.53906 7.2463 7.53906 9.67513C7.53906 12.104 9.50802 14.0729 11.9368 14.0729Z" fill="#6326DD"/>
<path d="M10.5322 13.8447C9.42669 13.4719 8.51458 12.6751 7.99652 11.6297C7.47847 10.5843 7.3969 9.376 7.76977 8.27048C8.14264 7.16497 8.9394 6.25286 9.98477 5.73481C11.0301 5.21675 12.2385 5.13518 13.344 5.50805L11.9381 9.67639L10.5322 13.8447Z" fill="#D4C0FD"/>
</g>
</g>
<defs>
<linearGradient id="paint0_linear_2473_60134" x1="12.0625" y1="0" x2="12.0625" y2="24.125" gradientUnits="userSpaceOnUse">
<stop stop-color="#E6E7E9"/>
<stop offset="1" stop-color="#E6E7E9" stop-opacity="0"/>
</linearGradient>
<linearGradient id="paint1_linear_2473_60134" x1="3.76953" y1="19.8854" x2="20.1042" y2="19.8854" gradientUnits="userSpaceOnUse">
<stop stop-color="#8E2DE2"/>
<stop offset="1" stop-color="#4A00E0"/>
</linearGradient>
<clipPath id="clip0_2473_60134">
<rect width="24.125" height="24.125" rx="12.0625" fill="white"/>
</clipPath>
<clipPath id="clip1_2473_60134">
<rect width="22.6172" height="22.6172" fill="white" transform="translate(0.753906 3.76953)"/>
</clipPath>
</defs>
</svg>
