<svg width="94" height="82" viewBox="0 0 94 82" fill="none" xmlns="http://www.w3.org/2000/svg">
<path d="M62.1466 23.2537H5.81956V33.551H62.1466V23.2537Z" fill="#7F56D9"/>
<path d="M36.3215 54.1674H8.88097C6.49329 54.1674 4.55282 52.225 4.55282 49.8393V18.4074C4.55282 16.0198 6.49526 14.0793 8.88097 14.0793H59.0852C61.4729 14.0793 63.4134 16.0217 63.4134 18.4074V44.3882H60.8799V18.4074C60.8799 17.4185 60.0742 16.6128 59.0852 16.6128H8.88097C7.89201 16.6128 7.08627 17.4185 7.08627 18.4074V49.8393C7.08627 50.8282 7.89201 51.634 8.88097 51.634H36.3215V54.1674Z" fill="#201F3B"/>
<g opacity="0.3804">
<path opacity="0.3804" d="M46.0456 43.1786C46.0456 40.4186 48.2835 38.1826 51.0416 38.1826C53.8016 38.1826 56.0376 40.4205 56.0376 43.1786C56.0376 45.9386 53.2953 42.9264 50.5353 42.9264C47.7772 42.9244 46.0456 45.9366 46.0456 43.1786Z" fill="#7F56D9"/>
</g>
<g opacity="0.6784">
<path opacity="0.6784" d="M39.4913 43.1786C39.4913 40.4186 41.7292 38.1826 44.4873 38.1826C47.2473 38.1826 49.4833 40.4205 49.4833 43.1786C49.4833 45.9386 44.0834 42.4241 44.0834 42.4241C44.0834 42.4241 39.4913 45.9366 39.4913 43.1786Z" fill="#7F56D9"/>
</g>
<path d="M88.6987 41.9099H38.7742C36.3117 41.9099 34.3062 43.9154 34.3062 46.3819V77.532C34.3062 79.9985 36.3117 82 38.7742 82H88.6987C91.1652 82 93.1707 79.9985 93.1707 77.532V46.3799C93.1687 43.9154 91.1632 41.9099 88.6987 41.9099ZM90.6352 77.532C90.6352 78.5997 89.7645 79.4665 88.6967 79.4665H38.7722C37.7084 79.4665 36.8377 78.6017 36.8377 77.532V46.3799C36.8377 45.3121 37.7084 44.4414 38.7722 44.4414H88.6967C89.7645 44.4414 90.6352 45.3121 90.6352 46.3799V77.532Z" fill="#201F3B"/>
<path d="M35.0607 40.5998C35.0568 40.5998 35.0548 40.5998 35.0509 40.5998L13.1737 40.4343C12.4743 40.4284 11.9109 39.8571 11.9168 39.1577C11.9227 38.4584 12.4979 37.895 13.1934 37.9009L35.0706 38.0664C35.7699 38.0723 36.3333 38.6436 36.3274 39.3429C36.3215 40.0384 35.7561 40.5998 35.0607 40.5998Z" fill="#201F3B"/>
<path d="M24.1231 46.9256C24.1172 46.9256 24.1093 46.9256 24.1034 46.9256L13.1658 46.7601C12.4664 46.7503 11.9069 46.173 11.9188 45.4737C11.9286 44.7802 12.494 44.2266 13.1855 44.2266C13.1914 44.2266 13.1993 44.2266 13.2052 44.2266L24.1428 44.3921C24.8422 44.402 25.4016 44.9792 25.3898 45.6785C25.378 46.37 24.8126 46.9256 24.1231 46.9256Z" fill="#201F3B"/>
<path d="M85.1428 53.2376C85.1408 53.2376 85.1369 53.2376 85.1349 53.2376L59.8003 53.0721C59.101 53.0681 58.5375 52.4968 58.5415 51.7975C58.5454 51.1001 59.1128 50.5386 59.8082 50.5386C59.8102 50.5386 59.8141 50.5386 59.8161 50.5386L85.1507 50.7041C85.85 50.708 86.4135 51.2793 86.4095 51.9787C86.4056 52.6761 85.8382 53.2376 85.1428 53.2376Z" fill="#201F3B"/>
<path d="M85.1428 59.6461C85.1369 59.6461 85.131 59.6461 85.1251 59.6461L59.7905 59.3131C59.0911 59.3033 58.5316 58.73 58.5395 58.0307C58.5494 57.3372 59.1148 56.7797 59.8062 56.7797C59.8122 56.7797 59.8181 56.7797 59.824 56.7797L85.1586 57.1126C85.8579 57.1225 86.4174 57.6957 86.4095 58.3951C86.3997 59.0905 85.8343 59.6461 85.1428 59.6461Z" fill="#201F3B"/>
<g opacity="0.6784">
<path opacity="0.6784" d="M75.6433 75.8358C78.4025 75.8358 80.6393 73.599 80.6393 70.8398C80.6393 68.0806 78.4025 65.8438 75.6433 65.8438C72.8841 65.8438 70.6473 68.0806 70.6473 70.8398C70.6473 73.599 72.8841 75.8358 75.6433 75.8358Z" fill="#7F56D9"/>
</g>
<g opacity="0.3804">
<path opacity="0.3804" d="M82.1976 75.8358C84.9568 75.8358 87.1936 73.599 87.1936 70.8398C87.1936 68.0806 84.9568 65.8438 82.1976 65.8438C79.4384 65.8438 77.2016 68.0806 77.2016 70.8398C77.2016 73.599 79.4384 75.8358 82.1976 75.8358Z" fill="#7F56D9"/>
</g>
<path d="M41.8809 59.1989V50.8853C41.8809 50.4992 42.1942 50.186 42.5803 50.186H53.8508C54.237 50.186 54.5502 50.4992 54.5502 50.8853V59.1989C54.5502 59.585 54.237 59.8982 53.8508 59.8982H42.5803C42.1922 59.8982 41.8809 59.585 41.8809 59.1989Z" fill="#201F3B"/>
<path d="M46.3155 71.9154C46.4376 72.0375 46.5007 72.1991 46.5007 72.3626C46.5007 72.5222 46.4376 72.6837 46.3155 72.8098C46.1894 72.9319 46.0278 72.995 45.8683 72.995C45.7028 72.995 45.5432 72.9319 45.4211 72.8098L44.306 71.6948L43.2639 72.6995C43.1417 72.8177 42.9861 72.8768 42.8246 72.8768C42.6591 72.8768 42.4956 72.8098 42.3695 72.6817C42.1291 72.4276 42.137 72.0277 42.3872 71.7814L43.4136 70.7984L42.4345 69.8232C42.3124 69.6971 42.2533 69.5356 42.2533 69.376C42.2533 69.2105 42.3124 69.051 42.4345 68.9288C42.6827 68.6806 43.0846 68.6806 43.3348 68.9288L44.3317 69.9257L45.4388 68.8619C45.687 68.6176 46.0889 68.6254 46.3332 68.8796C46.5735 69.1337 46.5657 69.5336 46.3115 69.774L45.226 70.822L46.3155 71.9154Z" fill="#201F3B"/>
<path d="M53.4765 71.9154C53.5987 72.0375 53.6578 72.1991 53.6578 72.3626C53.6578 72.5222 53.5987 72.6837 53.4765 72.8098C53.3504 72.9319 53.1889 72.995 53.0254 72.995C52.8658 72.995 52.7043 72.9319 52.5782 72.8098L51.4671 71.6987L50.425 72.6995C50.3028 72.8177 50.1472 72.8768 49.9856 72.8768C49.8202 72.8768 49.6567 72.8098 49.5306 72.6817C49.2902 72.4276 49.2981 72.0277 49.5483 71.7814L50.5747 70.8023L49.5956 69.8232C49.4734 69.6971 49.4104 69.5356 49.4104 69.376C49.4104 69.2105 49.4734 69.051 49.5956 68.9288C49.8438 68.6806 50.2457 68.6806 50.49 68.9288L51.4868 69.9257L52.5979 68.8619C52.8461 68.6176 53.248 68.6254 53.4923 68.8796C53.7326 69.1337 53.7248 69.5336 53.4706 69.774L52.3812 70.822L53.4765 71.9154Z" fill="#201F3B"/>
<path d="M60.5746 71.9154C60.7006 72.0375 60.7598 72.1991 60.7598 72.3626C60.7598 72.5222 60.7006 72.6837 60.5746 72.8098C60.4524 72.9319 60.2909 72.995 60.1274 72.995C59.9678 72.995 59.8023 72.9319 59.6802 72.8098L58.5691 71.6987L57.5269 72.6995C57.4048 72.8177 57.2432 72.8768 57.0876 72.8768C56.9221 72.8768 56.7547 72.8098 56.6306 72.6817C56.3863 72.4276 56.3942 72.0277 56.6483 71.7814L57.6707 70.7984L56.6956 69.8232C56.5734 69.6971 56.5104 69.5356 56.5104 69.376C56.5104 69.2105 56.5734 69.051 56.6956 68.9288C56.9438 68.6806 57.3457 68.6806 57.59 68.9288L58.5868 69.9257L59.694 68.8619C59.9481 68.6176 60.348 68.6254 60.5884 68.8796C60.8326 69.1337 60.8247 69.5336 60.5706 69.774L59.4812 70.822L60.5746 71.9154Z" fill="#201F3B"/>
<path d="M82.9462 22.1938C82.9462 22.8952 82.3808 23.4606 81.6795 23.4606H79.4711V25.669C79.4711 26.3663 78.9017 26.9357 78.2043 26.9357C77.503 26.9357 76.9376 26.3663 76.9376 25.665V23.4566H74.7292C74.0279 23.4566 73.4625 22.8912 73.4625 22.1899C73.4625 21.4886 74.0279 20.9232 74.7292 20.9232H76.9376V18.7148C76.9376 18.0134 77.507 17.448 78.2043 17.448C78.555 17.448 78.8722 17.5918 79.0987 17.8204C79.3273 18.0489 79.4711 18.37 79.4711 18.7148V20.9271H81.6795C82.3808 20.9271 82.9462 21.4925 82.9462 22.1938Z" fill="#EBEBEB"/>
<path d="M4.78135 7.88551C4.60011 7.88551 4.41886 7.87369 4.23565 7.84808C3.1935 7.70427 2.26759 7.16448 1.63127 6.32525C0.994954 5.48602 0.723089 4.44978 0.866901 3.40566C1.16241 1.25242 3.15606 -0.258587 5.3093 0.036917C7.46254 0.334391 8.97358 2.32609 8.67807 4.47933C8.53426 5.52345 7.99248 6.4474 7.15325 7.08372C6.46374 7.60774 5.63634 7.88354 4.78135 7.88551ZM4.77149 2.53097C4.08001 2.53097 3.47325 3.04318 3.37672 3.74845C3.3255 4.12078 3.42203 4.49116 3.65055 4.79257C3.87711 5.09202 4.20807 5.28507 4.58237 5.33629C4.95471 5.38751 5.32508 5.29099 5.62453 5.06246C5.92397 4.83591 6.11701 4.50494 6.1702 4.13063C6.27659 3.36035 5.7368 2.64917 4.96652 2.54279C4.89954 2.53688 4.8365 2.53097 4.77149 2.53097ZM2.12181 3.57705H2.12575H2.12181Z" fill="#7F56D9"/>
</svg>
