<svg width="20" height="20" viewBox="0 0 20 20" fill="none" xmlns="http://www.w3.org/2000/svg">
<path d="M19.4296 9.87837C19.105 4.34137 14.074 0.0740806 8.27922 1.02873C4.28877 1.68745 1.09069 4.9237 0.470163 8.91416C0.107395 11.2244 0.584742 13.4106 1.62532 15.2149L0.775659 18.3748C0.584728 19.0908 1.24342 19.7399 1.94986 19.5395L5.06205 18.6803C6.47493 19.5108 8.12648 19.9881 9.89259 19.9881C15.2768 19.9881 19.7446 15.2435 19.4296 9.87837ZM14.5609 13.9929C14.4749 14.1648 14.3699 14.3271 14.2363 14.4798C13.9976 14.7376 13.7398 14.9285 13.4534 15.043C13.167 15.1672 12.852 15.2244 12.5179 15.2244C12.031 15.2244 11.506 15.1099 10.9618 14.8712C10.4081 14.6326 9.86398 14.3175 9.31982 13.9261C8.76612 13.5251 8.2506 13.0765 7.75418 12.5896C7.25776 12.0932 6.81859 11.5681 6.41764 11.0239C6.02623 10.4798 5.71121 9.93564 5.4821 9.39148C5.25298 8.84733 5.13843 8.32229 5.13843 7.82587C5.13843 7.50128 5.19571 7.18625 5.31027 6.89985C5.42482 6.60391 5.60622 6.33661 5.86398 6.09794C6.16947 5.79246 6.50358 5.64926 6.8568 5.64926C6.99045 5.64926 7.12408 5.67789 7.24818 5.73517C7.37229 5.79245 7.48687 5.87837 7.57279 6.00247L8.68016 7.56809C8.76608 7.6922 8.83292 7.79721 8.87111 7.90223C8.91884 8.00724 8.93794 8.1027 8.93794 8.19817C8.93794 8.31272 8.89977 8.4273 8.83294 8.54186C8.76611 8.65642 8.68017 8.77096 8.56561 8.88552L8.20284 9.26737C8.14556 9.32465 8.12651 9.38194 8.12651 9.45832C8.12651 9.4965 8.13601 9.53468 8.14556 9.57287C8.16465 9.61106 8.17424 9.6397 8.18378 9.66834C8.2697 9.83063 8.42242 10.0311 8.63244 10.2793C8.85201 10.5275 9.08117 10.7853 9.32938 11.0335C9.58714 11.2912 9.83533 11.5204 10.0931 11.7399C10.3413 11.9499 10.5513 12.0932 10.7136 12.1791C10.7422 12.1886 10.7709 12.2077 10.7995 12.2173C10.8377 12.2363 10.8759 12.2364 10.9236 12.2364C11.0096 12.2364 11.0669 12.2077 11.1241 12.1504L11.4868 11.7877C11.611 11.6636 11.7256 11.5777 11.8306 11.5204C11.9451 11.4535 12.0501 11.4153 12.1742 11.4153C12.2697 11.4153 12.3652 11.4344 12.4702 11.4822C12.5752 11.5299 12.6897 11.5872 12.8043 11.6731L14.389 12.7996C14.5131 12.8855 14.599 12.9905 14.6563 13.1051C14.704 13.2292 14.7327 13.3438 14.7327 13.4774C14.6754 13.6397 14.6372 13.8211 14.5609 13.9929Z" fill="#545455"/>
</svg>
