<?xml version="1.0" encoding="utf-8"?>
<!-- Generator: Adobe Illustrator 16.0.0, SVG Export Plug-In . SVG Version: 6.00 Build 0)  -->
<!DOCTYPE svg PUBLIC "-//W3C//DTD SVG 1.1//EN" "http://www.w3.org/Graphics/SVG/1.1/DTD/svg11.dtd">
<svg version="1.1" id="Layer_1" xmlns="http://www.w3.org/2000/svg" xmlns:xlink="http://www.w3.org/1999/xlink" x="0px" y="0px"
	 width="400px" height="400px" viewBox="0 0 400 400" enable-background="new 0 0 400 400" xml:space="preserve">
<g>
	
		<linearGradient id="SVGID_1_" gradientUnits="userSpaceOnUse" x1="-374.0337" y1="309.6152" x2="-71.0036" y2="-377.6345" gradientTransform="matrix(1 0 0 -1 454 221)">
		<stop  offset="0.156" style="stop-color:#AB5CE9"/>
		<stop  offset="0.7258" style="stop-color:#5106D0"/>
	</linearGradient>
	<path fill="url(#SVGID_1_)" d="M389.658,200.749c0,27.038-5.894,52.7-16.468,75.774c-28.75,62.743-92.104,106.329-165.638,106.329
		c-28.357,0-55.202-6.478-79.131-18.045c-3.245-1.567-6.439-3.229-9.573-4.981c-22.748-12.712-42.488-30.162-57.884-51.013h-0.001
		c-3.571-4.832-6.909-9.85-9.993-15.035c-16.213-27.224-25.527-59.039-25.527-93.027c0-13.749,1.522-27.139,4.411-40.011
		c5.623-25.076,16.415-48.201,31.204-68.189c7.004-9.467,14.905-18.235,23.577-26.17c32.396-29.65,75.544-47.739,122.917-47.739
		c56.57,0,107.111,25.792,140.52,66.258c17.867,21.648,30.826,47.493,37.178,75.834C388.141,173.606,389.658,187,389.658,200.749z"
		/>
	<path opacity="0.07" fill="#CBA5F1" enable-background="new    " d="M387.06,160.729c-0.162,98.003-79.661,177.397-177.7,177.397
		c-98.04,0-177.534-79.396-177.699-177.391c5.623-25.076,16.417-48.202,31.207-68.189c7.004-9.467,14.906-18.235,23.577-26.17
		c32.394-29.65,75.542-47.739,122.914-47.739c56.571,0,107.116,25.792,140.513,66.258
		C367.742,106.543,380.705,132.39,387.06,160.729z"/>
	
		<linearGradient id="SVGID_2_" gradientUnits="userSpaceOnUse" x1="-358.0024" y1="286.3955" x2="-177.8988" y2="-143.2795" gradientTransform="matrix(1 0 0 -1 454 221)">
		<stop  offset="0.2419" style="stop-color:#DE6BF0"/>
		<stop  offset="1" style="stop-color:#341A5A"/>
	</linearGradient>
	<path opacity="0.33" fill="url(#SVGID_2_)" enable-background="new    " d="M389.658,200.749c0,27.038-5.894,52.7-16.468,75.774
		c-28.75,62.743-92.104,106.329-165.638,106.329c-28.357,0-55.202-6.478-79.131-18.045c-3.245-1.567-6.439-3.229-9.573-4.981
		c-22.748-12.712-42.488-30.162-57.884-51.013h-0.001c-3.571-4.832-6.909-9.85-9.993-15.035
		c-16.213-27.224-25.527-59.039-25.527-93.027c0-40.521,13.235-77.946,35.616-108.201c40.075-33.742,91.814-54.072,148.3-54.072
		c52.081,0,100.126,17.284,138.715,46.419C374.052,116.379,389.658,156.736,389.658,200.749z"/>
	
		<linearGradient id="SVGID_3_" gradientUnits="userSpaceOnUse" x1="-321.5327" y1="209.4922" x2="-133.1922" y2="-179.9146" gradientTransform="matrix(1 0 0 -1 454 221)">
		<stop  offset="0.2419" style="stop-color:#DE6BF0"/>
		<stop  offset="1" style="stop-color:#341A5A"/>
	</linearGradient>
	<path opacity="0.18" fill="url(#SVGID_3_)" enable-background="new    " d="M389.658,200.746c0,27.041-5.894,52.708-16.468,75.777
		c-28.75,62.743-92.104,106.329-165.638,106.329c-28.357,0-55.202-6.479-79.131-18.045c-3.245-1.562-6.439-3.229-9.573-4.981
		c-0.426-0.24-0.85-0.482-1.273-0.721c-0.09-0.049-0.182-0.1-0.273-0.155c-0.261-0.15-0.522-0.298-0.78-0.452
		c-0.287-0.155-0.568-0.324-0.852-0.494c-0.711-0.41-1.42-0.835-2.125-1.265c37.605,19.515,158.492-3.385,210.204-92.799
		c34.092-58.94,50.491-134.184,24.737-178.53c0.63,1.091,1.39,2.024,2.261,2.812C375.124,119.194,389.658,158.271,389.658,200.746z"
		/>
	
		<linearGradient id="SVGID_4_" gradientUnits="userSpaceOnUse" x1="-211.6709" y1="-15.082" x2="-901.2803" y2="674.5274" gradientTransform="matrix(1 0 0 -1 454 221)">
		<stop  offset="0.156" style="stop-color:#E09DE9"/>
		<stop  offset="0.7258" style="stop-color:#5106D0"/>
	</linearGradient>
	<path opacity="0.17" fill="url(#SVGID_4_)" enable-background="new    " d="M59,229.147c0,61.985,8.355,95.568,55.764,128.325
		c-21.028-12.471-39.334-29.06-53.8-48.66h-0.001c-3.571-4.834-6.909-9.851-9.994-15.035
		c-16.212-27.224-25.526-59.039-25.526-93.027c0-13.75,1.522-27.139,4.411-40.011c5.623-25.076,16.415-48.202,31.204-68.189
		c7.004-9.467,14.905-18.235,23.576-26.17c32.396-29.65,75.544-47.739,122.917-47.739c44.172,0,84.665,15.726,116.198,41.881
		c0,0-43.668-12.926-83.197-12.926C140.284,47.592,59,128.877,59,229.147z"/>
	<path opacity="0.3" fill="#2B013A" enable-background="new    " d="M70.181,320.292c0,0,16.17,11.368,40.857,4.869l26.462-0.312
		l-20.427,15.135l-44.493,5.598l-4.992-10.748L70.181,320.292z"/>
	<path opacity="0.3" fill="#2B013A" enable-background="new    " d="M249.22,234.439c0,0,3.29,11.215-1.2,16.916
		c-6.229,7.904-32.909,25.916-46.807,32.113l6.342,2.341l23.036-3.71l29.03-18.384l6.958-14.527L249.22,234.439z"/>
	<path opacity="0.3" fill="#2B013A" enable-background="new    " d="M281.775,293.352c-0.124-0.113-6.301-5.489-16.635,0
		c0,0-105.696,62.686-136.719,71.454c-3.245-1.568-6.439-3.229-9.573-4.982l-1.776-4.105l53.264-29.357l103.694-52.354
		L281.775,293.352z"/>
	<path opacity="0.3" fill="#2B013A" enable-background="new    " d="M292.149,102.554c0,0,5.606,18.459-9.552,31.139
		c-8.72,7.295-23.659,16.378-52.007,34.342l26.909,3.374l21.489-9.684l34.502-29.661L292.149,102.554z"/>
	<path opacity="0.3" fill="#2B013A" enable-background="new    " d="M338.929,187.199c0,0-6.542-9.007-29.393,3.25
		c0,0-154.333,94.148-248.574,118.362l0,0c-3.571-4.835-6.909-9.852-9.994-15.035l278.865-134.669L338.929,187.199z"/>
	<path opacity="0.3" fill="#2B013A" enable-background="new    " d="M30.778,156.809c0,0,8.646,9.944,26.596,7.135
		c34.578-5.41,19.82,1.414,19.82,1.414l-11.877,11.194l-16.723,3.862c0,0-4.917,3.327-9.836,1.131
		c-4.917-2.19-1.437,7.645-4.767-1.513c-3.328-9.155-3.214-8.549-3.214-8.549l-2.461-10.421L30.778,156.809z"/>
	<path opacity="0.3" fill="#2B013A" enable-background="new    " d="M206.457,68.744c0,0,2.902,13.003-6.963,21.252
		c-6.353,5.31-24.79,18.2-33.988,24.016c-16.912,10.684,49.778-12.865,49.778-12.865l7.108-17.855l-8.321-7.869L206.457,68.744z"/>
	<path opacity="0.3" fill="#2B013A" enable-background="new    " d="M238.988,106.869v20.788c-0.717-0.891-1.595-1.604-2.494-2.269
		c-5.924-4.374-14.359,1.897-20.633,5.996c-23.285,15.208-68.071,41.539-135.942,70.065c-25.25,10.608-43.506,13.542-54.047,12.256
		c-0.202-2.869-0.338-5.759-0.404-8.662l52.185-20.395l65.343-25.539L238.988,106.869z"/>
	
		<linearGradient id="SVGID_5_" gradientUnits="userSpaceOnUse" x1="-302.8833" y1="103.7847" x2="-602.6554" y2="-61.6555" gradientTransform="matrix(1 0 0 -1 454 221)">
		<stop  offset="0.0822" style="stop-color:#31B5ED"/>
		<stop  offset="0.7448" style="stop-color:#5045DD"/>
	</linearGradient>
	<path fill="url(#SVGID_5_)" d="M274.031,68.968l-3.773,2.88c-1.257,0.958-2.507,1.933-3.794,2.857
		c-2.561,1.858-5.092,3.76-7.698,5.561l-3.887,2.734c-1.298,0.904-2.612,1.788-3.918,2.682c-1.313,0.886-2.612,1.783-3.934,2.664
		l-3.967,2.614c-10.597,6.935-21.406,13.544-32.35,19.924c-21.896,12.743-44.354,24.506-67.113,35.625l-4.273,2.073l-4.284,2.048
		c-2.853,1.378-5.726,2.713-8.588,4.063c-2.866,1.35-5.745,2.664-8.617,3.999l-4.324,1.967c-1.441,0.653-2.881,1.311-4.328,1.954
		c-11.568,5.165-23.193,10.196-34.956,14.909c-5.876,2.353-11.782,4.649-17.736,6.812c-1.493,0.529-2.973,1.091-4.489,1.574
		c-1.515,0.487-3.053,0.909-4.616,1.23c-1.559,0.324-3.142,0.55-4.735,0.64c-1.594,0.087-3.2,0.06-4.783-0.194
		c-0.792-0.114-1.577-0.298-2.345-0.523c-0.77-0.22-1.517-0.516-2.24-0.861c-1.453-0.688-2.77-1.654-3.872-2.818
		c-1.101-1.173-1.959-2.55-2.583-4.024c-0.62-1.473-0.997-3.041-1.178-4.624c-0.087-0.788-0.128-1.583-0.128-2.38
		c0.007-0.792,0.057-1.589,0.137-2.377c0.173-1.58,0.501-3.142,0.956-4.661c0.917-3.038,2.349-5.914,4.161-8.506
		c-1.773,2.621-3.159,5.507-4.028,8.545c-0.868,3.027-1.246,6.228-0.858,9.354c0.197,1.559,0.585,3.095,1.208,4.532
		c0.626,1.434,1.479,2.778,2.563,3.901s2.372,2.048,3.791,2.698c0.707,0.333,1.438,0.61,2.19,0.82
		c0.75,0.211,1.515,0.381,2.292,0.483c1.549,0.229,3.123,0.25,4.687,0.151c1.568-0.099,3.125-0.333,4.662-0.656
		c1.539-0.329,3.056-0.752,4.551-1.245c1.493-0.486,2.974-1.06,4.458-1.6c5.932-2.202,11.816-4.534,17.675-6.924l4.386-1.806
		l4.377-1.837c1.461-0.606,2.914-1.235,4.369-1.857c1.454-0.619,2.913-1.229,4.363-1.866l4.353-1.891
		c1.452-0.634,2.896-1.275,4.344-1.912c2.896-1.275,5.782-2.579,8.666-3.876c11.538-5.196,22.992-10.59,34.369-16.138
		c11.381-5.54,22.674-11.252,33.877-17.145c11.208-5.886,22.303-11.97,33.285-18.265c10.976-6.303,21.817-12.841,32.462-19.695
		l3.988-2.569c1.327-0.865,2.64-1.75,3.961-2.621c1.313-0.881,2.638-1.746,3.946-2.636l3.904-2.692
		c2.627-1.773,5.179-3.646,7.765-5.476c1.298-0.904,2.556-1.858,3.832-2.798L274.031,68.968z"/>
	<path opacity="0.3" fill="#2B013A" enable-background="new    " d="M27.621,229.055c0,0,17.568,22.627,50.719,8.805
		c52.003-21.685,76.257-9.453,76.257-9.453l-49.028,26.451l-69.46,27.239l-9.532-9.072l-2.27-22.476"/>
	<path fill="#F757A1" d="M292.149,102.559l11.989,21.691c0,0-13.449,16.453-162.866,88.371l-84.114,33.738
		c-13.134,5.271-27.737-3.271-29.538-17.305c-0.014-0.111-0.026-0.226-0.042-0.33c0,0-7.158,2.337-13.768,10.908
		c-1.967,2.551-3.563,5.378-4.807,8.344c-5.94,14.152-4.391,32.425,5.268,44.611c9.132,11.522,23.232,12.831,36.701,10.535
		c28.86-5.003,55.916-17.239,82.542-29.018c101.75-44.986,171.358-90.184,194.137-107.311l11.277,20.404l57.993-94.334
		L292.149,102.559z"/>
	<path fill="#F757A1" d="M274.031,68.968l-35.014,58.687l-7.752-14.033C215.607,125.4,167.751,156.468,97.8,187.399
		c-18.306,8.098-36.904,16.506-56.747,19.95c-9.257,1.574-18.954,0.679-25.231-7.239c-6.64-8.383-7.705-20.945-3.622-30.674
		c0.857-2.037,1.953-3.982,3.304-5.733c4.546-5.893,15.295-6.978,15.277-6.896c-1.815,7.977,12.139,13.078,20.108,9.804
		l52.243-21.483c96.254-45.248,111.271-62.006,111.271-62.006l-7.948-14.377L274.031,68.968z"/>
	
		<linearGradient id="SVGID_6_" gradientUnits="userSpaceOnUse" x1="-485.2793" y1="28.8877" x2="-87.3327" y2="189.2671" gradientTransform="matrix(1 0 0 -1 454 221)">
		<stop  offset="0" style="stop-color:#ED1E79"/>
		<stop  offset="0.3082" style="stop-color:#F02D94"/>
		<stop  offset="0.9664" style="stop-color:#F755D7"/>
		<stop  offset="1" style="stop-color:#F757DB"/>
	</linearGradient>
	<path fill="url(#SVGID_6_)" d="M274.031,68.968C207.957,119.726,96.529,169.751,53.49,185.121
		c-28.045,10.016-33.376-12.657-22.833-28.134c0.08-0.116,0.122-0.179,0.122-0.179c-1.813,7.977,12.141,13.078,20.112,9.804
		l52.242-21.483c46.603-21.905,74.163-37.135,90.196-47.018c17.083-10.53,21.076-14.99,21.076-14.99l-7.949-14.377L274.031,68.968z"
		/>
	
		<linearGradient id="SVGID_7_" gradientUnits="userSpaceOnUse" x1="-644.3232" y1="-122.3818" x2="214.169" y2="236.9674" gradientTransform="matrix(1 0 0 -1 454 221)">
		<stop  offset="0" style="stop-color:#ED1E79"/>
		<stop  offset="0.3082" style="stop-color:#F02D94"/>
		<stop  offset="0.9664" style="stop-color:#F755D7"/>
		<stop  offset="1" style="stop-color:#F757DB"/>
	</linearGradient>
	<path fill="url(#SVGID_7_)" d="M396.915,92.866c-6.734,5.787-13.713,11.287-20.827,16.596
		c-7.916,5.906-15.997,11.581-24.188,17.093c-8.825,5.945-17.778,11.708-26.813,17.332c-9.503,5.906-19.096,11.666-28.756,17.311
		c-9.923,5.793-19.917,11.466-29.972,17.035c-10.11,5.603-20.272,11.099-30.489,16.513c-10.054,5.32-20.154,10.558-30.296,15.716
		c-9.762,4.967-19.563,9.864-29.396,14.683c-9.232,4.528-18.496,8.989-27.786,13.391c-8.463,3.999-16.954,7.949-25.474,11.827
		c-7.458,3.406-14.938,6.749-22.448,10.032c-6.213,2.707-12.448,5.378-18.718,7.964c-4.731,1.943-9.48,3.857-14.276,5.641
		c-5.146,1.914-10.405,3.721-15.867,4.455c-4.929,0.665-10.312,0.453-14.969-1.42c-26.894-10.81-9.02-47.975-9.02-47.975
		c1.798,14.033,16.402,22.567,29.538,17.304l84.111-33.738c105.433-50.749,143.167-73.88,156.245-83.097
		c5.462-3.846,6.621-5.273,6.621-5.273l-11.986-21.696L396.915,92.866z"/>
	<path fill="#F757A1" d="M316.784,234.665l-35.006,58.687l-7.757-14.031c-15.657,11.778-63.511,42.845-133.46,73.776
		c-18.307,8.099-31.933,16.414-51.774,19.855c-9.26,1.575-23.926,0.778-30.204-7.144c-6.641-8.38-7.705-20.942-3.623-30.671
		c0.856-2.042,1.952-3.985,3.303-5.732c4.546-5.899,11.855-9.171,11.918-9.106c8.706,8.443,15.303,13.227,31.43,8.732l44.277-18.202
		c96.26-45.246,111.273-62.015,111.273-62.015l-7.945-14.378L316.784,234.665z"/>
	
		<linearGradient id="SVGID_8_" gradientUnits="userSpaceOnUse" x1="-547.0811" y1="-154.8633" x2="50.6821" y2="32.0988" gradientTransform="matrix(1 0 0 -1 454 221)">
		<stop  offset="0" style="stop-color:#ED1E79"/>
		<stop  offset="0.3082" style="stop-color:#F02D94"/>
		<stop  offset="0.9664" style="stop-color:#F755D7"/>
		<stop  offset="1" style="stop-color:#F757DB"/>
	</linearGradient>
	<path fill="url(#SVGID_8_)" d="M316.784,234.665c-7.635,5.461-15.42,10.72-23.301,15.827c-8.233,5.328-16.579,10.493-24.997,15.522
		c-8.573,5.122-17.222,10.11-25.94,14.979c-8.652,4.847-17.371,9.573-26.136,14.208c-8.485,4.479-17.015,8.875-25.592,13.185
		c-8.062,4.048-16.159,8.028-24.297,11.92c-7.39,3.547-14.809,7.023-22.263,10.428c-6.464,2.953-12.954,5.852-19.476,8.684
		c-5.291,2.297-10.604,4.544-15.951,6.706c-4.217,1.71-8.46,3.376-12.748,4.91c-2.589,0.926-5.292,1.528-8.026,1.802
		c-2.438,0.239-5.603,0.564-7.966-0.213c-18.006-5.985-9.915-32.331-9.915-32.331c8.709,8.45,15.306,13.241,31.434,8.747
		l44.281-18.209c50.747-23.852,78.909-39.798,94.201-49.536c13.708-8.731,17.069-12.478,17.069-12.478l-7.951-14.377
		L316.784,234.665z"/>
</g>
</svg>
